<?xml version="1.0" encoding="utf-8" standalone="no"?>
<!DOCTYPE svg PUBLIC "-//W3C//DTD SVG 1.1//EN"
  "http://www.w3.org/Graphics/SVG/1.1/DTD/svg11.dtd">
<!-- Created with matplotlib (https://matplotlib.org/) -->
<svg height="170.07874pt" version="1.1" viewBox="0 0 453.543307 170.07874" width="453.543307pt" xmlns="http://www.w3.org/2000/svg" xmlns:xlink="http://www.w3.org/1999/xlink">
 <metadata>
  <rdf:RDF xmlns:cc="http://creativecommons.org/ns#" xmlns:dc="http://purl.org/dc/elements/1.1/" xmlns:rdf="http://www.w3.org/1999/02/22-rdf-syntax-ns#">
   <cc:Work>
    <dc:type rdf:resource="http://purl.org/dc/dcmitype/StillImage"/>
    <dc:date>2021-09-02T14:41:59.988544</dc:date>
    <dc:format>image/svg+xml</dc:format>
    <dc:creator>
     <cc:Agent>
      <dc:title>Matplotlib v3.3.2, https://matplotlib.org/</dc:title>
     </cc:Agent>
    </dc:creator>
   </cc:Work>
  </rdf:RDF>
 </metadata>
 <defs>
  <style type="text/css">*{stroke-linecap:butt;stroke-linejoin:round;}</style>
 </defs>
 <g id="figure_1">
  <g id="patch_1">
   <path d="M 0 170.07874 
L 453.543307 170.07874 
L 453.543307 0 
L 0 0 
z
" style="fill:#ffffff;"/>
  </g>
  <g id="axes_1">
   <g id="patch_2">
    <path d="M 42.10625 137.91874 
L 221.272094 137.91874 
L 221.272094 1 
L 42.10625 1 
z
" style="fill:#ffffff;"/>
   </g>
   <g id="matplotlib.axis_1">
    <g id="xtick_1">
     <g id="line2d_1">
      <defs>
       <path d="M 0 0 
L 0 3.5 
" id="mca24325b35" style="stroke:#000000;stroke-width:0.8;"/>
      </defs>
      <g>
       <use style="stroke:#000000;stroke-width:0.8;" x="50.250152" xlink:href="#mca24325b35" y="137.91874"/>
      </g>
     </g>
     <g id="text_1">
      <!-- 00:00 -->
      <g transform="translate(35.840777 152.517178)scale(0.1 -0.1)">
       <defs>
        <path d="M 31.78125 66.40625 
Q 24.171875 66.40625 20.328125 58.90625 
Q 16.5 51.421875 16.5 36.375 
Q 16.5 21.390625 20.328125 13.890625 
Q 24.171875 6.390625 31.78125 6.390625 
Q 39.453125 6.390625 43.28125 13.890625 
Q 47.125 21.390625 47.125 36.375 
Q 47.125 51.421875 43.28125 58.90625 
Q 39.453125 66.40625 31.78125 66.40625 
z
M 31.78125 74.21875 
Q 44.046875 74.21875 50.515625 64.515625 
Q 56.984375 54.828125 56.984375 36.375 
Q 56.984375 17.96875 50.515625 8.265625 
Q 44.046875 -1.421875 31.78125 -1.421875 
Q 19.53125 -1.421875 13.0625 8.265625 
Q 6.59375 17.96875 6.59375 36.375 
Q 6.59375 54.828125 13.0625 64.515625 
Q 19.53125 74.21875 31.78125 74.21875 
z
" id="DejaVuSans-48"/>
        <path d="M 11.71875 12.40625 
L 22.015625 12.40625 
L 22.015625 0 
L 11.71875 0 
z
M 11.71875 51.703125 
L 22.015625 51.703125 
L 22.015625 39.3125 
L 11.71875 39.3125 
z
" id="DejaVuSans-58"/>
       </defs>
       <use xlink:href="#DejaVuSans-48"/>
       <use x="63.623047" xlink:href="#DejaVuSans-48"/>
       <use x="127.246094" xlink:href="#DejaVuSans-58"/>
       <use x="160.9375" xlink:href="#DejaVuSans-48"/>
       <use x="224.560547" xlink:href="#DejaVuSans-48"/>
      </g>
     </g>
    </g>
    <g id="xtick_2">
     <g id="line2d_2">
      <g>
       <use style="stroke:#000000;stroke-width:0.8;" x="104.542832" xlink:href="#mca24325b35" y="137.91874"/>
      </g>
     </g>
     <g id="text_2">
      <!-- 05:00 -->
      <g transform="translate(90.133457 152.517178)scale(0.1 -0.1)">
       <defs>
        <path d="M 10.796875 72.90625 
L 49.515625 72.90625 
L 49.515625 64.59375 
L 19.828125 64.59375 
L 19.828125 46.734375 
Q 21.96875 47.46875 24.109375 47.828125 
Q 26.265625 48.1875 28.421875 48.1875 
Q 40.625 48.1875 47.75 41.5 
Q 54.890625 34.8125 54.890625 23.390625 
Q 54.890625 11.625 47.5625 5.09375 
Q 40.234375 -1.421875 26.90625 -1.421875 
Q 22.3125 -1.421875 17.546875 -0.640625 
Q 12.796875 0.140625 7.71875 1.703125 
L 7.71875 11.625 
Q 12.109375 9.234375 16.796875 8.0625 
Q 21.484375 6.890625 26.703125 6.890625 
Q 35.15625 6.890625 40.078125 11.328125 
Q 45.015625 15.765625 45.015625 23.390625 
Q 45.015625 31 40.078125 35.4375 
Q 35.15625 39.890625 26.703125 39.890625 
Q 22.75 39.890625 18.8125 39.015625 
Q 14.890625 38.140625 10.796875 36.28125 
z
" id="DejaVuSans-53"/>
       </defs>
       <use xlink:href="#DejaVuSans-48"/>
       <use x="63.623047" xlink:href="#DejaVuSans-53"/>
       <use x="127.246094" xlink:href="#DejaVuSans-58"/>
       <use x="160.9375" xlink:href="#DejaVuSans-48"/>
       <use x="224.560547" xlink:href="#DejaVuSans-48"/>
      </g>
     </g>
    </g>
    <g id="xtick_3">
     <g id="line2d_3">
      <g>
       <use style="stroke:#000000;stroke-width:0.8;" x="158.835512" xlink:href="#mca24325b35" y="137.91874"/>
      </g>
     </g>
     <g id="text_3">
      <!-- 10:00 -->
      <g transform="translate(144.426137 152.517178)scale(0.1 -0.1)">
       <defs>
        <path d="M 12.40625 8.296875 
L 28.515625 8.296875 
L 28.515625 63.921875 
L 10.984375 60.40625 
L 10.984375 69.390625 
L 28.421875 72.90625 
L 38.28125 72.90625 
L 38.28125 8.296875 
L 54.390625 8.296875 
L 54.390625 0 
L 12.40625 0 
z
" id="DejaVuSans-49"/>
       </defs>
       <use xlink:href="#DejaVuSans-49"/>
       <use x="63.623047" xlink:href="#DejaVuSans-48"/>
       <use x="127.246094" xlink:href="#DejaVuSans-58"/>
       <use x="160.9375" xlink:href="#DejaVuSans-48"/>
       <use x="224.560547" xlink:href="#DejaVuSans-48"/>
      </g>
     </g>
    </g>
    <g id="xtick_4">
     <g id="line2d_4">
      <g>
       <use style="stroke:#000000;stroke-width:0.8;" x="213.128192" xlink:href="#mca24325b35" y="137.91874"/>
      </g>
     </g>
     <g id="text_4">
      <!-- 15:00 -->
      <g transform="translate(198.718817 152.517178)scale(0.1 -0.1)">
       <use xlink:href="#DejaVuSans-49"/>
       <use x="63.623047" xlink:href="#DejaVuSans-53"/>
       <use x="127.246094" xlink:href="#DejaVuSans-58"/>
       <use x="160.9375" xlink:href="#DejaVuSans-48"/>
       <use x="224.560547" xlink:href="#DejaVuSans-48"/>
      </g>
     </g>
    </g>
    <g id="text_5">
     <!-- simulation time in min:s -->
     <g transform="translate(71.287609 166.195303)scale(0.1 -0.1)">
      <defs>
       <path d="M 44.28125 53.078125 
L 44.28125 44.578125 
Q 40.484375 46.53125 36.375 47.5 
Q 32.28125 48.484375 27.875 48.484375 
Q 21.1875 48.484375 17.84375 46.4375 
Q 14.5 44.390625 14.5 40.28125 
Q 14.5 37.15625 16.890625 35.375 
Q 19.28125 33.59375 26.515625 31.984375 
L 29.59375 31.296875 
Q 39.15625 29.25 43.1875 25.515625 
Q 47.21875 21.78125 47.21875 15.09375 
Q 47.21875 7.46875 41.1875 3.015625 
Q 35.15625 -1.421875 24.609375 -1.421875 
Q 20.21875 -1.421875 15.453125 -0.5625 
Q 10.6875 0.296875 5.421875 2 
L 5.421875 11.28125 
Q 10.40625 8.6875 15.234375 7.390625 
Q 20.0625 6.109375 24.8125 6.109375 
Q 31.15625 6.109375 34.5625 8.28125 
Q 37.984375 10.453125 37.984375 14.40625 
Q 37.984375 18.0625 35.515625 20.015625 
Q 33.0625 21.96875 24.703125 23.78125 
L 21.578125 24.515625 
Q 13.234375 26.265625 9.515625 29.90625 
Q 5.8125 33.546875 5.8125 39.890625 
Q 5.8125 47.609375 11.28125 51.796875 
Q 16.75 56 26.8125 56 
Q 31.78125 56 36.171875 55.265625 
Q 40.578125 54.546875 44.28125 53.078125 
z
" id="DejaVuSans-115"/>
       <path d="M 9.421875 54.6875 
L 18.40625 54.6875 
L 18.40625 0 
L 9.421875 0 
z
M 9.421875 75.984375 
L 18.40625 75.984375 
L 18.40625 64.59375 
L 9.421875 64.59375 
z
" id="DejaVuSans-105"/>
       <path d="M 52 44.1875 
Q 55.375 50.25 60.0625 53.125 
Q 64.75 56 71.09375 56 
Q 79.640625 56 84.28125 50.015625 
Q 88.921875 44.046875 88.921875 33.015625 
L 88.921875 0 
L 79.890625 0 
L 79.890625 32.71875 
Q 79.890625 40.578125 77.09375 44.375 
Q 74.3125 48.1875 68.609375 48.1875 
Q 61.625 48.1875 57.5625 43.546875 
Q 53.515625 38.921875 53.515625 30.90625 
L 53.515625 0 
L 44.484375 0 
L 44.484375 32.71875 
Q 44.484375 40.625 41.703125 44.40625 
Q 38.921875 48.1875 33.109375 48.1875 
Q 26.21875 48.1875 22.15625 43.53125 
Q 18.109375 38.875 18.109375 30.90625 
L 18.109375 0 
L 9.078125 0 
L 9.078125 54.6875 
L 18.109375 54.6875 
L 18.109375 46.1875 
Q 21.1875 51.21875 25.484375 53.609375 
Q 29.78125 56 35.6875 56 
Q 41.65625 56 45.828125 52.96875 
Q 50 49.953125 52 44.1875 
z
" id="DejaVuSans-109"/>
       <path d="M 8.5 21.578125 
L 8.5 54.6875 
L 17.484375 54.6875 
L 17.484375 21.921875 
Q 17.484375 14.15625 20.5 10.265625 
Q 23.53125 6.390625 29.59375 6.390625 
Q 36.859375 6.390625 41.078125 11.03125 
Q 45.3125 15.671875 45.3125 23.6875 
L 45.3125 54.6875 
L 54.296875 54.6875 
L 54.296875 0 
L 45.3125 0 
L 45.3125 8.40625 
Q 42.046875 3.421875 37.71875 1 
Q 33.40625 -1.421875 27.6875 -1.421875 
Q 18.265625 -1.421875 13.375 4.4375 
Q 8.5 10.296875 8.5 21.578125 
z
M 31.109375 56 
z
" id="DejaVuSans-117"/>
       <path d="M 9.421875 75.984375 
L 18.40625 75.984375 
L 18.40625 0 
L 9.421875 0 
z
" id="DejaVuSans-108"/>
       <path d="M 34.28125 27.484375 
Q 23.390625 27.484375 19.1875 25 
Q 14.984375 22.515625 14.984375 16.5 
Q 14.984375 11.71875 18.140625 8.90625 
Q 21.296875 6.109375 26.703125 6.109375 
Q 34.1875 6.109375 38.703125 11.40625 
Q 43.21875 16.703125 43.21875 25.484375 
L 43.21875 27.484375 
z
M 52.203125 31.203125 
L 52.203125 0 
L 43.21875 0 
L 43.21875 8.296875 
Q 40.140625 3.328125 35.546875 0.953125 
Q 30.953125 -1.421875 24.3125 -1.421875 
Q 15.921875 -1.421875 10.953125 3.296875 
Q 6 8.015625 6 15.921875 
Q 6 25.140625 12.171875 29.828125 
Q 18.359375 34.515625 30.609375 34.515625 
L 43.21875 34.515625 
L 43.21875 35.40625 
Q 43.21875 41.609375 39.140625 45 
Q 35.0625 48.390625 27.6875 48.390625 
Q 23 48.390625 18.546875 47.265625 
Q 14.109375 46.140625 10.015625 43.890625 
L 10.015625 52.203125 
Q 14.9375 54.109375 19.578125 55.046875 
Q 24.21875 56 28.609375 56 
Q 40.484375 56 46.34375 49.84375 
Q 52.203125 43.703125 52.203125 31.203125 
z
" id="DejaVuSans-97"/>
       <path d="M 18.3125 70.21875 
L 18.3125 54.6875 
L 36.8125 54.6875 
L 36.8125 47.703125 
L 18.3125 47.703125 
L 18.3125 18.015625 
Q 18.3125 11.328125 20.140625 9.421875 
Q 21.96875 7.515625 27.59375 7.515625 
L 36.8125 7.515625 
L 36.8125 0 
L 27.59375 0 
Q 17.1875 0 13.234375 3.875 
Q 9.28125 7.765625 9.28125 18.015625 
L 9.28125 47.703125 
L 2.6875 47.703125 
L 2.6875 54.6875 
L 9.28125 54.6875 
L 9.28125 70.21875 
z
" id="DejaVuSans-116"/>
       <path d="M 30.609375 48.390625 
Q 23.390625 48.390625 19.1875 42.75 
Q 14.984375 37.109375 14.984375 27.296875 
Q 14.984375 17.484375 19.15625 11.84375 
Q 23.34375 6.203125 30.609375 6.203125 
Q 37.796875 6.203125 41.984375 11.859375 
Q 46.1875 17.53125 46.1875 27.296875 
Q 46.1875 37.015625 41.984375 42.703125 
Q 37.796875 48.390625 30.609375 48.390625 
z
M 30.609375 56 
Q 42.328125 56 49.015625 48.375 
Q 55.71875 40.765625 55.71875 27.296875 
Q 55.71875 13.875 49.015625 6.21875 
Q 42.328125 -1.421875 30.609375 -1.421875 
Q 18.84375 -1.421875 12.171875 6.21875 
Q 5.515625 13.875 5.515625 27.296875 
Q 5.515625 40.765625 12.171875 48.375 
Q 18.84375 56 30.609375 56 
z
" id="DejaVuSans-111"/>
       <path d="M 54.890625 33.015625 
L 54.890625 0 
L 45.90625 0 
L 45.90625 32.71875 
Q 45.90625 40.484375 42.875 44.328125 
Q 39.84375 48.1875 33.796875 48.1875 
Q 26.515625 48.1875 22.3125 43.546875 
Q 18.109375 38.921875 18.109375 30.90625 
L 18.109375 0 
L 9.078125 0 
L 9.078125 54.6875 
L 18.109375 54.6875 
L 18.109375 46.1875 
Q 21.34375 51.125 25.703125 53.5625 
Q 30.078125 56 35.796875 56 
Q 45.21875 56 50.046875 50.171875 
Q 54.890625 44.34375 54.890625 33.015625 
z
" id="DejaVuSans-110"/>
       <path id="DejaVuSans-32"/>
       <path d="M 56.203125 29.59375 
L 56.203125 25.203125 
L 14.890625 25.203125 
Q 15.484375 15.921875 20.484375 11.0625 
Q 25.484375 6.203125 34.421875 6.203125 
Q 39.59375 6.203125 44.453125 7.46875 
Q 49.3125 8.734375 54.109375 11.28125 
L 54.109375 2.78125 
Q 49.265625 0.734375 44.1875 -0.34375 
Q 39.109375 -1.421875 33.890625 -1.421875 
Q 20.796875 -1.421875 13.15625 6.1875 
Q 5.515625 13.8125 5.515625 26.8125 
Q 5.515625 40.234375 12.765625 48.109375 
Q 20.015625 56 32.328125 56 
Q 43.359375 56 49.78125 48.890625 
Q 56.203125 41.796875 56.203125 29.59375 
z
M 47.21875 32.234375 
Q 47.125 39.59375 43.09375 43.984375 
Q 39.0625 48.390625 32.421875 48.390625 
Q 24.90625 48.390625 20.390625 44.140625 
Q 15.875 39.890625 15.1875 32.171875 
z
" id="DejaVuSans-101"/>
      </defs>
      <use xlink:href="#DejaVuSans-115"/>
      <use x="52.099609" xlink:href="#DejaVuSans-105"/>
      <use x="79.882812" xlink:href="#DejaVuSans-109"/>
      <use x="177.294922" xlink:href="#DejaVuSans-117"/>
      <use x="240.673828" xlink:href="#DejaVuSans-108"/>
      <use x="268.457031" xlink:href="#DejaVuSans-97"/>
      <use x="329.736328" xlink:href="#DejaVuSans-116"/>
      <use x="368.945312" xlink:href="#DejaVuSans-105"/>
      <use x="396.728516" xlink:href="#DejaVuSans-111"/>
      <use x="457.910156" xlink:href="#DejaVuSans-110"/>
      <use x="521.289062" xlink:href="#DejaVuSans-32"/>
      <use x="553.076172" xlink:href="#DejaVuSans-116"/>
      <use x="592.285156" xlink:href="#DejaVuSans-105"/>
      <use x="620.068359" xlink:href="#DejaVuSans-109"/>
      <use x="717.480469" xlink:href="#DejaVuSans-101"/>
      <use x="779.003906" xlink:href="#DejaVuSans-32"/>
      <use x="810.791016" xlink:href="#DejaVuSans-105"/>
      <use x="838.574219" xlink:href="#DejaVuSans-110"/>
      <use x="901.953125" xlink:href="#DejaVuSans-32"/>
      <use x="933.740234" xlink:href="#DejaVuSans-109"/>
      <use x="1031.152344" xlink:href="#DejaVuSans-105"/>
      <use x="1058.935547" xlink:href="#DejaVuSans-110"/>
      <use x="1122.314453" xlink:href="#DejaVuSans-58"/>
      <use x="1156.005859" xlink:href="#DejaVuSans-115"/>
     </g>
    </g>
   </g>
   <g id="matplotlib.axis_2">
    <g id="ytick_1">
     <g id="line2d_5">
      <defs>
       <path d="M 0 0 
L -3.5 0 
" id="m56ce53e461" style="stroke:#000000;stroke-width:0.8;"/>
      </defs>
      <g>
       <use style="stroke:#000000;stroke-width:0.8;" x="42.10625" xlink:href="#m56ce53e461" y="103.809812"/>
      </g>
     </g>
     <g id="text_6">
      <!-- 0.2 -->
      <g transform="translate(19.203125 107.609031)scale(0.1 -0.1)">
       <defs>
        <path d="M 10.6875 12.40625 
L 21 12.40625 
L 21 0 
L 10.6875 0 
z
" id="DejaVuSans-46"/>
        <path d="M 19.1875 8.296875 
L 53.609375 8.296875 
L 53.609375 0 
L 7.328125 0 
L 7.328125 8.296875 
Q 12.9375 14.109375 22.625 23.890625 
Q 32.328125 33.6875 34.8125 36.53125 
Q 39.546875 41.84375 41.421875 45.53125 
Q 43.3125 49.21875 43.3125 52.78125 
Q 43.3125 58.59375 39.234375 62.25 
Q 35.15625 65.921875 28.609375 65.921875 
Q 23.96875 65.921875 18.8125 64.3125 
Q 13.671875 62.703125 7.8125 59.421875 
L 7.8125 69.390625 
Q 13.765625 71.78125 18.9375 73 
Q 24.125 74.21875 28.421875 74.21875 
Q 39.75 74.21875 46.484375 68.546875 
Q 53.21875 62.890625 53.21875 53.421875 
Q 53.21875 48.921875 51.53125 44.890625 
Q 49.859375 40.875 45.40625 35.40625 
Q 44.1875 33.984375 37.640625 27.21875 
Q 31.109375 20.453125 19.1875 8.296875 
z
" id="DejaVuSans-50"/>
       </defs>
       <use xlink:href="#DejaVuSans-48"/>
       <use x="63.623047" xlink:href="#DejaVuSans-46"/>
       <use x="95.410156" xlink:href="#DejaVuSans-50"/>
      </g>
     </g>
    </g>
    <g id="ytick_2">
     <g id="line2d_6">
      <g>
       <use style="stroke:#000000;stroke-width:0.8;" x="42.10625" xlink:href="#m56ce53e461" y="68.687546"/>
      </g>
     </g>
     <g id="text_7">
      <!-- 0.4 -->
      <g transform="translate(19.203125 72.486764)scale(0.1 -0.1)">
       <defs>
        <path d="M 37.796875 64.3125 
L 12.890625 25.390625 
L 37.796875 25.390625 
z
M 35.203125 72.90625 
L 47.609375 72.90625 
L 47.609375 25.390625 
L 58.015625 25.390625 
L 58.015625 17.1875 
L 47.609375 17.1875 
L 47.609375 0 
L 37.796875 0 
L 37.796875 17.1875 
L 4.890625 17.1875 
L 4.890625 26.703125 
z
" id="DejaVuSans-52"/>
       </defs>
       <use xlink:href="#DejaVuSans-48"/>
       <use x="63.623047" xlink:href="#DejaVuSans-46"/>
       <use x="95.410156" xlink:href="#DejaVuSans-52"/>
      </g>
     </g>
    </g>
    <g id="ytick_3">
     <g id="line2d_7">
      <g>
       <use style="stroke:#000000;stroke-width:0.8;" x="42.10625" xlink:href="#m56ce53e461" y="33.565279"/>
      </g>
     </g>
     <g id="text_8">
      <!-- 0.6 -->
      <g transform="translate(19.203125 37.364498)scale(0.1 -0.1)">
       <defs>
        <path d="M 33.015625 40.375 
Q 26.375 40.375 22.484375 35.828125 
Q 18.609375 31.296875 18.609375 23.390625 
Q 18.609375 15.53125 22.484375 10.953125 
Q 26.375 6.390625 33.015625 6.390625 
Q 39.65625 6.390625 43.53125 10.953125 
Q 47.40625 15.53125 47.40625 23.390625 
Q 47.40625 31.296875 43.53125 35.828125 
Q 39.65625 40.375 33.015625 40.375 
z
M 52.59375 71.296875 
L 52.59375 62.3125 
Q 48.875 64.0625 45.09375 64.984375 
Q 41.3125 65.921875 37.59375 65.921875 
Q 27.828125 65.921875 22.671875 59.328125 
Q 17.53125 52.734375 16.796875 39.40625 
Q 19.671875 43.65625 24.015625 45.921875 
Q 28.375 48.1875 33.59375 48.1875 
Q 44.578125 48.1875 50.953125 41.515625 
Q 57.328125 34.859375 57.328125 23.390625 
Q 57.328125 12.15625 50.6875 5.359375 
Q 44.046875 -1.421875 33.015625 -1.421875 
Q 20.359375 -1.421875 13.671875 8.265625 
Q 6.984375 17.96875 6.984375 36.375 
Q 6.984375 53.65625 15.1875 63.9375 
Q 23.390625 74.21875 37.203125 74.21875 
Q 40.921875 74.21875 44.703125 73.484375 
Q 48.484375 72.75 52.59375 71.296875 
z
" id="DejaVuSans-54"/>
       </defs>
       <use xlink:href="#DejaVuSans-48"/>
       <use x="63.623047" xlink:href="#DejaVuSans-46"/>
       <use x="95.410156" xlink:href="#DejaVuSans-54"/>
      </g>
     </g>
    </g>
    <g id="text_9">
     <!-- massflow $\dot{m}$ in kg/s -->
     <g transform="translate(13.103125 117.45937)rotate(-90)scale(0.1 -0.1)">
      <defs>
       <path d="M 37.109375 75.984375 
L 37.109375 68.5 
L 28.515625 68.5 
Q 23.6875 68.5 21.796875 66.546875 
Q 19.921875 64.59375 19.921875 59.515625 
L 19.921875 54.6875 
L 34.71875 54.6875 
L 34.71875 47.703125 
L 19.921875 47.703125 
L 19.921875 0 
L 10.890625 0 
L 10.890625 47.703125 
L 2.296875 47.703125 
L 2.296875 54.6875 
L 10.890625 54.6875 
L 10.890625 58.5 
Q 10.890625 67.625 15.140625 71.796875 
Q 19.390625 75.984375 28.609375 75.984375 
z
" id="DejaVuSans-102"/>
       <path d="M 4.203125 54.6875 
L 13.1875 54.6875 
L 24.421875 12.015625 
L 35.59375 54.6875 
L 46.1875 54.6875 
L 57.421875 12.015625 
L 68.609375 54.6875 
L 77.59375 54.6875 
L 63.28125 0 
L 52.6875 0 
L 40.921875 44.828125 
L 29.109375 0 
L 18.5 0 
z
" id="DejaVuSans-119"/>
       <path d="M -29.59375 75.984375 
L -20.609375 75.984375 
L -20.609375 64.59375 
L -29.59375 64.59375 
z
M -25 56 
z
" id="DejaVuSans-775"/>
       <path d="M 89.796875 33.015625 
L 83.40625 0 
L 74.421875 0 
L 80.71875 32.71875 
Q 81.109375 34.8125 81.296875 36.328125 
Q 81.5 37.84375 81.5 38.921875 
Q 81.5 43.3125 79.046875 45.75 
Q 76.609375 48.1875 72.21875 48.1875 
Q 65.671875 48.1875 60.546875 43.28125 
Q 55.421875 38.375 53.90625 30.515625 
L 47.90625 0 
L 38.921875 0 
L 45.3125 32.71875 
Q 45.703125 34.515625 45.890625 36.046875 
Q 46.09375 37.59375 46.09375 38.8125 
Q 46.09375 43.265625 43.65625 45.71875 
Q 41.21875 48.1875 36.921875 48.1875 
Q 30.28125 48.1875 25.140625 43.28125 
Q 20.015625 38.375 18.5 30.515625 
L 12.5 0 
L 3.515625 0 
L 14.203125 54.6875 
L 23.1875 54.6875 
L 21.484375 46.1875 
Q 25.140625 50.984375 30.046875 53.484375 
Q 34.96875 56 40.578125 56 
Q 46.53125 56 50.359375 52.875 
Q 54.203125 49.75 54.984375 44.1875 
Q 59.078125 49.953125 64.46875 52.96875 
Q 69.875 56 75.875 56 
Q 82.90625 56 86.734375 51.953125 
Q 90.578125 47.90625 90.578125 40.484375 
Q 90.578125 38.875 90.375 36.9375 
Q 90.1875 35.015625 89.796875 33.015625 
z
" id="DejaVuSans-Oblique-109"/>
       <path d="M 9.078125 75.984375 
L 18.109375 75.984375 
L 18.109375 31.109375 
L 44.921875 54.6875 
L 56.390625 54.6875 
L 27.390625 29.109375 
L 57.625 0 
L 45.90625 0 
L 18.109375 26.703125 
L 18.109375 0 
L 9.078125 0 
z
" id="DejaVuSans-107"/>
       <path d="M 45.40625 27.984375 
Q 45.40625 37.75 41.375 43.109375 
Q 37.359375 48.484375 30.078125 48.484375 
Q 22.859375 48.484375 18.828125 43.109375 
Q 14.796875 37.75 14.796875 27.984375 
Q 14.796875 18.265625 18.828125 12.890625 
Q 22.859375 7.515625 30.078125 7.515625 
Q 37.359375 7.515625 41.375 12.890625 
Q 45.40625 18.265625 45.40625 27.984375 
z
M 54.390625 6.78125 
Q 54.390625 -7.171875 48.1875 -13.984375 
Q 42 -20.796875 29.203125 -20.796875 
Q 24.46875 -20.796875 20.265625 -20.09375 
Q 16.0625 -19.390625 12.109375 -17.921875 
L 12.109375 -9.1875 
Q 16.0625 -11.328125 19.921875 -12.34375 
Q 23.78125 -13.375 27.78125 -13.375 
Q 36.625 -13.375 41.015625 -8.765625 
Q 45.40625 -4.15625 45.40625 5.171875 
L 45.40625 9.625 
Q 42.625 4.78125 38.28125 2.390625 
Q 33.9375 0 27.875 0 
Q 17.828125 0 11.671875 7.65625 
Q 5.515625 15.328125 5.515625 27.984375 
Q 5.515625 40.671875 11.671875 48.328125 
Q 17.828125 56 27.875 56 
Q 33.9375 56 38.28125 53.609375 
Q 42.625 51.21875 45.40625 46.390625 
L 45.40625 54.6875 
L 54.390625 54.6875 
z
" id="DejaVuSans-103"/>
       <path d="M 25.390625 72.90625 
L 33.6875 72.90625 
L 8.296875 -9.28125 
L 0 -9.28125 
z
" id="DejaVuSans-47"/>
      </defs>
      <use transform="translate(0 0.515625)" xlink:href="#DejaVuSans-109"/>
      <use transform="translate(97.412109 0.515625)" xlink:href="#DejaVuSans-97"/>
      <use transform="translate(158.691406 0.515625)" xlink:href="#DejaVuSans-115"/>
      <use transform="translate(210.791016 0.515625)" xlink:href="#DejaVuSans-115"/>
      <use transform="translate(262.890625 0.515625)" xlink:href="#DejaVuSans-102"/>
      <use transform="translate(298.095703 0.515625)" xlink:href="#DejaVuSans-108"/>
      <use transform="translate(325.878906 0.515625)" xlink:href="#DejaVuSans-111"/>
      <use transform="translate(387.060547 0.515625)" xlink:href="#DejaVuSans-119"/>
      <use transform="translate(468.847656 0.515625)" xlink:href="#DejaVuSans-32"/>
      <use transform="translate(586.581543 13.015625)" xlink:href="#DejaVuSans-775"/>
      <use transform="translate(500.634766 0.515625)" xlink:href="#DejaVuSans-Oblique-109"/>
      <use transform="translate(598.046875 0.515625)" xlink:href="#DejaVuSans-32"/>
      <use transform="translate(629.833984 0.515625)" xlink:href="#DejaVuSans-105"/>
      <use transform="translate(657.617188 0.515625)" xlink:href="#DejaVuSans-110"/>
      <use transform="translate(720.996094 0.515625)" xlink:href="#DejaVuSans-32"/>
      <use transform="translate(752.783203 0.515625)" xlink:href="#DejaVuSans-107"/>
      <use transform="translate(810.693359 0.515625)" xlink:href="#DejaVuSans-103"/>
      <use transform="translate(874.169922 0.515625)" xlink:href="#DejaVuSans-47"/>
      <use transform="translate(907.861328 0.515625)" xlink:href="#DejaVuSans-115"/>
     </g>
    </g>
   </g>
   <g id="line2d_8">
    <path clip-path="url(#p1da12dc152)" d="M 50.250152 131.695161 
L 50.793079 94.543147 
L 51.336006 55.876461 
L 51.516981 51.43304 
L 51.878932 55.517633 
L 52.421859 49.606246 
L 52.78381 52.086526 
L 52.964786 52.125964 
L 53.326737 50.647156 
L 53.507713 50.87107 
L 53.869664 51.573731 
L 54.231615 51.067914 
L 54.412591 51.063331 
L 54.774542 51.342682 
L 55.498444 51.211496 
L 55.860396 51.264176 
L 56.584298 51.237547 
L 59.298932 51.23208 
L 86.264296 51.234097 
L 104.542832 51.262336 
L 104.723808 54.54 
L 105.44771 104.300326 
L 105.628686 101.895176 
L 105.809661 89.90751 
L 105.990637 87.037451 
L 106.352588 109.816549 
L 106.533564 104.478151 
L 106.714539 91.176983 
L 106.895515 87.368807 
L 107.257466 109.825128 
L 107.438442 104.805346 
L 107.619417 92.031586 
L 107.800393 87.789411 
L 108.162344 110.501853 
L 108.34332 104.748286 
L 108.524295 91.817234 
L 108.705271 87.281902 
L 109.067222 109.778522 
L 109.248198 104.738106 
L 109.429173 91.80123 
L 109.610149 87.198374 
L 109.9721 110.041869 
L 110.153076 105.563887 
L 110.334051 92.24753 
L 110.515027 87.221781 
L 110.876978 109.946139 
L 111.057954 105.607689 
L 111.419905 87.182287 
L 111.781856 110.09809 
L 111.962832 105.508866 
L 112.324783 87.030129 
L 112.686734 109.667118 
L 112.86771 105.998614 
L 113.229661 87.258378 
L 113.591612 109.853735 
L 113.772588 105.427972 
L 114.134539 86.87255 
L 114.49649 109.510983 
L 114.677466 106.289107 
L 115.039417 87.166853 
L 115.401368 109.620073 
L 115.582344 105.606184 
L 115.944295 86.755316 
L 116.306246 109.505865 
L 116.487222 105.718297 
L 116.849173 87.065007 
L 117.211124 109.434966 
L 117.3921 105.746907 
L 117.754051 86.653127 
L 118.116002 109.734215 
L 118.296978 105.910405 
L 118.658929 86.972652 
L 119.02088 109.269291 
L 119.201856 105.884204 
L 119.563807 86.885642 
L 119.925758 109.62748 
L 120.106734 106.075109 
L 120.468685 86.90891 
L 120.830636 109.580514 
L 121.011612 105.220643 
L 121.373563 86.811998 
L 121.735514 109.539475 
L 121.91649 106.220322 
L 122.278441 87.14738 
L 122.640392 109.471062 
L 122.821368 105.337338 
L 123.183319 86.743967 
L 123.54527 109.912699 
L 123.726246 105.557964 
L 124.088197 87.084997 
L 124.450148 109.367731 
L 124.631124 105.447012 
L 124.993075 86.753193 
L 125.355026 109.806351 
L 125.536002 105.660635 
L 125.897953 87.071889 
L 126.259904 109.457128 
L 126.44088 105.722862 
L 126.802831 86.969302 
L 127.164782 109.652883 
L 127.345758 105.938188 
L 127.707709 86.992688 
L 128.06966 109.788402 
L 128.250636 105.767487 
L 128.612587 86.857973 
L 128.974538 109.424636 
L 129.155514 106.334153 
L 129.517465 87.171171 
L 129.879416 109.766762 
L 130.060392 105.916347 
L 130.422343 86.713744 
L 130.784294 109.136549 
L 130.96527 106.366451 
L 131.327221 87.022673 
L 131.689172 109.556198 
L 131.870148 106.482685 
L 132.232099 86.600381 
L 132.59405 109.337152 
L 132.775026 106.527049 
L 133.136977 86.90544 
L 133.498928 109.275536 
L 133.679904 107.074462 
L 134.041855 86.689271 
L 134.403806 108.983868 
L 134.584782 107.04966 
L 134.946733 86.813335 
L 135.308684 108.903357 
L 135.48966 107.228762 
L 135.851611 86.569813 
L 136.213562 108.578658 
L 136.394538 107.575784 
L 136.756489 86.944607 
L 137.11844 109.078903 
L 137.299416 107.44252 
L 137.661367 86.467284 
L 138.023318 108.372155 
L 138.204294 107.383386 
L 138.566245 86.774348 
L 138.928196 108.607248 
L 139.109172 107.949354 
L 139.471123 86.447081 
L 139.833074 108.33894 
L 140.01405 107.86831 
L 140.376001 86.752066 
L 140.737952 108.126913 
L 140.918928 108.026777 
L 141.280879 86.447879 
L 141.823806 108.309816 
L 142.185757 86.793396 
L 142.728684 108.358351 
L 143.090635 86.468443 
L 143.633562 108.794563 
L 143.995513 86.946343 
L 144.176488 94.830756 
L 144.357464 107.557662 
L 144.53844 108.897057 
L 144.900391 86.566579 
L 145.081366 93.711673 
L 145.262342 106.725272 
L 145.443318 108.688975 
L 145.805269 86.795062 
L 145.986244 94.098886 
L 146.16722 106.920169 
L 146.348196 109.339316 
L 146.710147 86.520389 
L 146.891122 93.895511 
L 147.072098 106.58629 
L 147.253074 109.120598 
L 147.615025 86.956282 
L 147.796 93.881824 
L 147.976976 107.095844 
L 148.157952 109.180338 
L 148.519903 86.672419 
L 148.700878 93.307278 
L 148.881854 106.086338 
L 149.06283 109.14975 
L 149.424781 86.920483 
L 149.605756 93.727015 
L 149.786732 106.584768 
L 149.967708 109.540559 
L 150.329659 86.868336 
L 150.510634 93.611533 
L 150.69161 106.419066 
L 150.872586 109.371999 
L 151.234537 87.085849 
L 151.415512 93.6382 
L 151.596488 106.882853 
L 151.777464 109.353725 
L 152.139415 86.763596 
L 152.32039 93.060754 
L 152.501366 105.970632 
L 152.682342 109.394382 
L 153.044293 87.024389 
L 153.225268 93.519622 
L 153.406244 106.391861 
L 153.58722 109.66987 
L 153.949171 86.685283 
L 154.130146 93.389848 
L 154.311122 106.33312 
L 154.492098 109.600749 
L 154.854049 87.085618 
L 155.035024 93.697815 
L 155.216 106.555774 
L 155.396976 109.552943 
L 155.758927 86.934122 
L 155.939902 92.686564 
L 156.120878 106.054154 
L 156.301854 109.533715 
L 156.663805 86.835055 
L 156.84478 92.687608 
L 157.025756 105.979809 
L 157.206732 109.528017 
L 157.568683 86.937692 
L 157.749658 92.613865 
L 157.930634 105.603529 
L 158.11161 110.023031 
L 158.473561 86.82978 
L 158.654536 92.551511 
L 158.835512 105.475376 
L 159.016488 110.024432 
L 159.378439 87.281016 
L 159.559414 92.498691 
L 159.74039 105.479424 
L 159.921366 110.078993 
L 160.283317 87.265643 
L 160.464292 92.030388 
L 160.645268 105.348149 
L 160.826244 110.084852 
L 161.188195 87.389104 
L 161.36917 91.568604 
L 161.731122 110.132034 
L 162.093073 87.329412 
L 162.274048 91.482045 
L 162.636 110.452029 
L 162.997951 87.800952 
L 163.178926 91.492539 
L 163.540878 109.966228 
L 163.902829 87.515268 
L 164.083804 91.207199 
L 164.445756 110.328857 
L 164.807707 88.063049 
L 164.988682 91.169272 
L 165.350634 109.997777 
L 165.712585 87.183407 
L 165.89356 91.295182 
L 166.255512 110.398126 
L 166.617463 88.180015 
L 166.798438 91.375757 
L 167.16039 110.628431 
L 167.522341 87.841596 
L 167.703316 90.721356 
L 168.065268 110.527259 
L 168.427219 88.472035 
L 168.608194 91.083408 
L 168.970146 110.788759 
L 169.332097 88.306263 
L 169.513072 90.190361 
L 169.875024 110.44534 
L 170.236975 88.464265 
L 170.41795 90.717277 
L 170.779902 110.871343 
L 171.141853 88.087964 
L 171.322828 90.52796 
L 171.68478 110.580415 
L 172.046731 88.387126 
L 172.227706 90.209252 
L 172.589658 110.716358 
L 172.951609 88.780886 
L 173.132584 89.775789 
L 173.494536 110.490021 
L 173.856487 88.426814 
L 174.037462 89.714447 
L 174.399414 110.827052 
L 174.761365 88.710438 
L 174.94234 89.870977 
L 175.304292 110.545985 
L 175.666243 88.632722 
L 175.847218 89.917233 
L 176.20917 110.801798 
L 176.571121 89.066624 
L 176.752096 89.391136 
L 177.114048 110.41153 
L 177.475999 88.612323 
L 177.656974 89.432717 
L 178.018926 110.736252 
L 178.380877 89.24175 
L 178.561852 89.573424 
L 178.923804 110.943726 
L 179.46673 88.88852 
L 179.828682 110.755182 
L 180.371608 89.070287 
L 180.73356 110.934315 
L 181.276486 88.984731 
L 181.638438 110.799237 
L 182.181364 89.440051 
L 182.543316 110.964274 
L 183.086242 88.969454 
L 183.448194 110.891828 
L 183.99112 88.488266 
L 184.353072 110.851573 
L 184.895998 88.524194 
L 185.25795 110.637189 
L 185.800876 88.436466 
L 186.162827 110.721302 
L 186.343803 103.467654 
L 186.524779 90.283491 
L 186.705754 88.506264 
L 187.067706 110.514731 
L 187.248681 103.153756 
L 187.429657 90.02124 
L 187.610632 88.552007 
L 187.972584 110.725846 
L 188.153559 103.294525 
L 188.334535 90.398437 
L 188.51551 88.010374 
L 188.877462 110.700573 
L 189.058437 103.114208 
L 189.239413 90.306633 
L 189.420388 88.039381 
L 189.78234 110.445747 
L 189.963315 103.276232 
L 190.144291 90.378092 
L 190.325266 88.009735 
L 190.687218 110.591067 
L 190.868193 104.131683 
L 191.049169 90.867477 
L 191.230144 88.02911 
L 191.592096 110.553242 
L 191.773071 104.143432 
L 191.954047 91.246897 
L 192.135022 87.936955 
L 192.496974 110.602925 
L 192.677949 104.117315 
L 192.858925 91.210631 
L 193.0399 87.540949 
L 193.401852 110.605169 
L 193.582827 104.122413 
L 193.763803 91.305655 
L 193.944778 87.861483 
L 194.30673 110.465553 
L 194.487705 104.014962 
L 194.668681 91.148264 
L 194.849656 87.664084 
L 195.211608 110.383003 
L 195.392583 104.409527 
L 195.573559 91.11346 
L 195.754534 87.554699 
L 196.116486 110.303802 
L 196.297461 104.896469 
L 196.478437 91.61136 
L 196.659412 87.590705 
L 197.021364 110.338395 
L 197.202339 104.902729 
L 197.383315 91.611125 
L 197.56429 87.523132 
L 197.926242 110.276724 
L 198.107217 105.027783 
L 198.469168 87.490955 
L 198.83112 109.967298 
L 199.012095 104.086682 
L 199.193071 91.200729 
L 199.374046 87.250069 
L 199.735998 109.813922 
L 199.916973 105.305337 
L 200.278924 87.713926 
L 200.640876 110.432458 
L 200.821851 105.191429 
L 201.183802 87.109199 
L 201.545754 109.461777 
L 201.726729 105.259425 
L 201.907705 92.102453 
L 202.08868 87.721087 
L 202.450632 110.268643 
L 202.631607 105.660392 
L 202.993558 87.036376 
L 203.35551 109.325488 
L 203.536485 105.08137 
L 203.898436 86.782239 
L 204.260388 109.594839 
L 204.441363 106.104486 
L 204.803314 87.247024 
L 205.165266 109.41284 
L 205.346241 105.300133 
L 205.708192 86.703102 
L 206.070144 109.321315 
L 206.251119 105.675825 
L 206.61307 87.203997 
L 206.975022 109.772834 
L 207.155997 106.370373 
L 207.517948 86.943152 
L 207.8799 109.261035 
L 208.060875 106.072011 
L 208.422826 87.251238 
L 208.784778 109.740103 
L 208.965753 106.006465 
L 209.327704 86.880228 
L 209.689656 109.002697 
L 209.870631 106.220967 
L 210.232582 86.628768 
L 210.594534 109.383912 
L 210.775509 106.456182 
L 211.13746 86.865158 
L 211.499412 108.709216 
L 211.680387 106.011621 
L 212.042338 86.562049 
L 212.40429 108.982467 
L 212.585265 106.786948 
L 212.947216 87.097933 
L 213.128192 91.491369 
L 213.128192 91.491369 
" style="fill:none;stroke:#1f77b4;stroke-linecap:square;stroke-width:1.5;"/>
   </g>
   <g id="line2d_9">
    <path clip-path="url(#p1da12dc152)" d="M 50.250152 17.92651 
L 50.431128 24.885372 
L 51.336006 90.279197 
L 51.516981 94.722618 
L 51.878932 90.638025 
L 52.421859 96.549412 
L 52.78381 94.069132 
L 52.964786 94.029694 
L 53.326737 95.508502 
L 53.507713 95.284588 
L 53.869664 94.581927 
L 54.231615 95.087744 
L 54.412591 95.092327 
L 54.774542 94.812976 
L 55.498444 94.944162 
L 55.860396 94.891482 
L 56.584298 94.918111 
L 59.298932 94.923578 
L 86.264296 94.921561 
L 104.542832 94.893322 
L 104.723808 91.615658 
L 105.44771 41.855332 
L 105.628686 44.260482 
L 105.809661 56.248148 
L 105.990637 59.118207 
L 106.352588 36.339109 
L 106.533564 41.677507 
L 106.714539 54.978675 
L 106.895515 58.786851 
L 107.257466 36.33053 
L 107.438442 41.350311 
L 107.619417 54.124072 
L 107.800393 58.366247 
L 108.162344 35.653805 
L 108.34332 41.407372 
L 108.524295 54.338423 
L 108.705271 58.873756 
L 109.067222 36.377136 
L 109.248198 41.417552 
L 109.429173 54.354427 
L 109.610149 58.957283 
L 109.9721 36.113789 
L 110.153076 40.591771 
L 110.334051 53.908128 
L 110.515027 58.933877 
L 110.876978 36.209519 
L 111.057954 40.547969 
L 111.419905 58.973371 
L 111.781856 36.057568 
L 111.962832 40.646792 
L 112.324783 59.125529 
L 112.686734 36.48854 
L 112.86771 40.157044 
L 113.229661 58.897279 
L 113.591612 36.301923 
L 113.772588 40.727686 
L 114.134539 59.283108 
L 114.49649 36.644675 
L 114.677466 39.866551 
L 115.039417 58.988805 
L 115.401368 36.535585 
L 115.582344 40.549474 
L 115.944295 59.400342 
L 116.306246 36.649792 
L 116.487222 40.43736 
L 116.849173 59.090651 
L 117.211124 36.720692 
L 117.3921 40.408751 
L 117.754051 59.502531 
L 118.116002 36.421443 
L 118.296978 40.245253 
L 118.658929 59.183006 
L 119.02088 36.886366 
L 119.201856 40.271454 
L 119.563807 59.270016 
L 119.925758 36.528178 
L 120.106734 40.080549 
L 120.468685 59.246748 
L 120.830636 36.575144 
L 121.011612 40.935015 
L 121.373563 59.34366 
L 121.735514 36.616183 
L 121.91649 39.935336 
L 122.278441 59.008278 
L 122.640392 36.684596 
L 122.821368 40.81832 
L 123.183319 59.411691 
L 123.54527 36.242959 
L 123.726246 40.597694 
L 124.088197 59.07066 
L 124.450148 36.787927 
L 124.631124 40.708646 
L 124.993075 59.402465 
L 125.355026 36.349307 
L 125.536002 40.495023 
L 125.897953 59.083769 
L 126.259904 36.69853 
L 126.44088 40.432796 
L 126.802831 59.186356 
L 127.164782 36.502775 
L 127.345758 40.21747 
L 127.707709 59.16297 
L 128.06966 36.367256 
L 128.250636 40.388171 
L 128.612587 59.297685 
L 128.974538 36.731022 
L 129.155514 39.821505 
L 129.517465 58.984487 
L 129.879416 36.388896 
L 130.060392 40.239311 
L 130.422343 59.441914 
L 130.784294 37.019109 
L 130.96527 39.789206 
L 131.327221 59.132985 
L 131.689172 36.59946 
L 131.870148 39.672973 
L 132.232099 59.555277 
L 132.59405 36.818506 
L 132.775026 39.628609 
L 133.136977 59.250218 
L 133.498928 36.880122 
L 133.679904 39.081196 
L 134.041855 59.466387 
L 134.403806 37.17179 
L 134.584782 39.105998 
L 134.946733 59.342323 
L 135.308684 37.252301 
L 135.48966 38.926896 
L 135.851611 59.585845 
L 136.213562 37.577 
L 136.394538 38.579874 
L 136.756489 59.211051 
L 137.11844 37.076755 
L 137.299416 38.713138 
L 137.661367 59.688374 
L 138.023318 37.783503 
L 138.204294 38.772272 
L 138.566245 59.38131 
L 138.928196 37.54841 
L 139.109172 38.206304 
L 139.471123 59.708577 
L 139.833074 37.816717 
L 140.01405 38.287348 
L 140.376001 59.403592 
L 140.737952 38.028744 
L 140.918928 38.128881 
L 141.280879 59.707779 
L 141.823806 37.845842 
L 142.185757 59.362262 
L 142.728684 37.797307 
L 143.090635 59.687215 
L 143.633562 37.361095 
L 143.995513 59.209315 
L 144.176488 51.324902 
L 144.357464 38.597996 
L 144.53844 37.258601 
L 144.900391 59.589079 
L 145.081366 52.443985 
L 145.262342 39.430386 
L 145.443318 37.466683 
L 145.805269 59.360596 
L 145.986244 52.056772 
L 146.16722 39.235489 
L 146.348196 36.816342 
L 146.710147 59.635269 
L 146.891122 52.260147 
L 147.072098 39.569368 
L 147.253074 37.03506 
L 147.615025 59.199376 
L 147.796 52.273834 
L 147.976976 39.059814 
L 148.157952 36.97532 
L 148.519903 59.483239 
L 148.700878 52.84838 
L 148.881854 40.06932 
L 149.06283 37.005908 
L 149.424781 59.235175 
L 149.605756 52.428643 
L 149.786732 39.57089 
L 149.967708 36.615099 
L 150.329659 59.287322 
L 150.510634 52.544125 
L 150.69161 39.736592 
L 150.872586 36.783659 
L 151.234537 59.069809 
L 151.415512 52.517458 
L 151.596488 39.272805 
L 151.777464 36.801933 
L 152.139415 59.392062 
L 152.32039 53.094904 
L 152.501366 40.185025 
L 152.682342 36.761275 
L 153.044293 59.131269 
L 153.225268 52.636035 
L 153.406244 39.763797 
L 153.58722 36.485788 
L 153.949171 59.470375 
L 154.130146 52.76581 
L 154.311122 39.822537 
L 154.492098 36.554909 
L 154.854049 59.070039 
L 155.035024 52.457843 
L 155.216 39.599884 
L 155.396976 36.602715 
L 155.758927 59.221536 
L 155.939902 53.469094 
L 156.120878 40.101504 
L 156.301854 36.621943 
L 156.663805 59.320603 
L 156.84478 53.46805 
L 157.025756 40.175849 
L 157.206732 36.627641 
L 157.568683 59.217966 
L 157.749658 53.541793 
L 157.930634 40.552129 
L 158.11161 36.132627 
L 158.473561 59.325878 
L 158.654536 53.604146 
L 158.835512 40.680282 
L 159.016488 36.131226 
L 159.378439 58.874642 
L 159.559414 53.656967 
L 159.74039 40.676234 
L 159.921366 36.076664 
L 160.283317 58.890015 
L 160.464292 54.12527 
L 160.645268 40.807509 
L 160.826244 36.070806 
L 161.188195 58.766554 
L 161.36917 54.587054 
L 161.731122 36.023624 
L 162.093073 58.826246 
L 162.274048 54.673613 
L 162.636 35.703629 
L 162.997951 58.354706 
L 163.178926 54.663119 
L 163.540878 36.18943 
L 163.902829 58.64039 
L 164.083804 54.948459 
L 164.445756 35.8268 
L 164.807707 58.092609 
L 164.988682 54.986386 
L 165.350634 36.157881 
L 165.712585 58.972251 
L 165.89356 54.860476 
L 166.255512 35.757532 
L 166.617463 57.975643 
L 166.798438 54.779901 
L 167.16039 35.527227 
L 167.522341 58.314062 
L 167.703316 55.434302 
L 168.065268 35.628399 
L 168.427219 57.683623 
L 168.608194 55.07225 
L 168.970146 35.366899 
L 169.332097 57.849395 
L 169.513072 55.965297 
L 169.875024 35.710318 
L 170.236975 57.691393 
L 170.41795 55.438381 
L 170.779902 35.284314 
L 171.141853 58.067693 
L 171.322828 55.627698 
L 171.68478 35.575243 
L 172.046731 57.768532 
L 172.227706 55.946405 
L 172.589658 35.4393 
L 172.951609 57.374772 
L 173.132584 56.379869 
L 173.494536 35.665637 
L 173.856487 57.728843 
L 174.037462 56.441211 
L 174.399414 35.328606 
L 174.761365 57.44522 
L 174.94234 56.284681 
L 175.304292 35.609673 
L 175.666243 57.522936 
L 175.847218 56.238425 
L 176.20917 35.35386 
L 176.571121 57.089034 
L 176.752096 56.764522 
L 177.114048 35.744128 
L 177.475999 57.543335 
L 177.656974 56.722941 
L 178.018926 35.419405 
L 178.380877 56.913908 
L 178.561852 56.582234 
L 178.923804 35.211931 
L 179.46673 57.267138 
L 179.828682 35.400476 
L 180.371608 57.085371 
L 180.73356 35.221342 
L 181.276486 57.170926 
L 181.638438 35.356421 
L 182.181364 56.715606 
L 182.543316 35.191384 
L 183.086242 57.186204 
L 183.448194 35.26383 
L 183.99112 57.667392 
L 184.353072 35.304085 
L 184.895998 57.631464 
L 185.25795 35.518469 
L 185.800876 57.719192 
L 186.162827 35.434356 
L 186.343803 42.688004 
L 186.524779 55.872167 
L 186.705754 57.649394 
L 187.067706 35.640927 
L 187.248681 43.001902 
L 187.429657 56.134418 
L 187.610632 57.603651 
L 187.972584 35.429811 
L 188.153559 42.861133 
L 188.334535 55.757221 
L 188.51551 58.145284 
L 188.877462 35.455085 
L 189.058437 43.04145 
L 189.239413 55.849025 
L 189.420388 58.116277 
L 189.78234 35.709911 
L 189.963315 42.879426 
L 190.144291 55.777566 
L 190.325266 58.145923 
L 190.687218 35.564591 
L 190.868193 42.023975 
L 191.049169 55.288181 
L 191.230144 58.126548 
L 191.592096 35.602416 
L 191.773071 42.012226 
L 191.954047 54.908761 
L 192.135022 58.218703 
L 192.496974 35.552733 
L 192.677949 42.038343 
L 192.858925 54.945027 
L 193.0399 58.614709 
L 193.401852 35.550489 
L 193.582827 42.033245 
L 193.763803 54.850003 
L 193.944778 58.294175 
L 194.30673 35.690105 
L 194.487705 42.140695 
L 194.668681 55.007394 
L 194.849656 58.491574 
L 195.211608 35.772655 
L 195.392583 41.746131 
L 195.573559 55.042197 
L 195.754534 58.600959 
L 196.116486 35.851856 
L 196.297461 41.259189 
L 196.478437 54.544298 
L 196.659412 58.564953 
L 197.021364 35.817263 
L 197.202339 41.252929 
L 197.383315 54.544533 
L 197.56429 58.632526 
L 197.926242 35.878934 
L 198.107217 41.127875 
L 198.469168 58.664703 
L 198.83112 36.18836 
L 199.012095 42.068976 
L 199.193071 54.954929 
L 199.374046 58.905589 
L 199.735998 36.341736 
L 199.916973 40.850321 
L 200.278924 58.441732 
L 200.640876 35.723199 
L 200.821851 40.964229 
L 201.183802 59.046459 
L 201.545754 36.693881 
L 201.726729 40.896233 
L 201.907705 54.053205 
L 202.08868 58.434571 
L 202.450632 35.887015 
L 202.631607 40.495266 
L 202.993558 59.119282 
L 203.35551 36.83017 
L 203.536485 41.074287 
L 203.898436 59.373419 
L 204.260388 36.560819 
L 204.441363 40.051172 
L 204.803314 58.908634 
L 205.165266 36.742818 
L 205.346241 40.855525 
L 205.708192 59.452556 
L 206.070144 36.834343 
L 206.251119 40.479833 
L 206.61307 58.951661 
L 206.975022 36.382824 
L 207.155997 39.785285 
L 207.517948 59.212506 
L 207.8799 36.894623 
L 208.060875 40.083647 
L 208.422826 58.90442 
L 208.784778 36.415555 
L 208.965753 40.149193 
L 209.327704 59.27543 
L 209.689656 37.152961 
L 209.870631 39.934691 
L 210.232582 59.52689 
L 210.594534 36.771746 
L 210.775509 39.699476 
L 211.13746 59.2905 
L 211.499412 37.446442 
L 211.680387 40.144037 
L 212.042338 59.593609 
L 212.40429 37.173191 
L 212.585265 39.36871 
L 212.947216 59.057725 
L 213.128192 54.664289 
L 213.128192 54.664289 
" style="fill:none;stroke:#ff7f0e;stroke-linecap:square;stroke-width:1.5;"/>
   </g>
   <g id="line2d_10">
    <path clip-path="url(#p1da12dc152)" d="M 50.250152 10.689592 
L 50.431128 7.223579 
L 213.128192 7.223579 
L 213.128192 7.223579 
" style="fill:none;stroke:#2ca02c;stroke-linecap:square;stroke-width:1.5;"/>
   </g>
   <g id="patch_3">
    <path d="M 42.10625 137.91874 
L 42.10625 1 
" style="fill:none;stroke:#000000;stroke-linecap:square;stroke-linejoin:miter;stroke-width:0.8;"/>
   </g>
   <g id="patch_4">
    <path d="M 221.272094 137.91874 
L 221.272094 1 
" style="fill:none;stroke:#000000;stroke-linecap:square;stroke-linejoin:miter;stroke-width:0.8;"/>
   </g>
   <g id="patch_5">
    <path d="M 42.10625 137.91874 
L 221.272094 137.91874 
" style="fill:none;stroke:#000000;stroke-linecap:square;stroke-linejoin:miter;stroke-width:0.8;"/>
   </g>
   <g id="patch_6">
    <path d="M 42.10625 1 
L 221.272094 1 
" style="fill:none;stroke:#000000;stroke-linecap:square;stroke-linejoin:miter;stroke-width:0.8;"/>
   </g>
   <g id="legend_1">
    <g id="patch_7">
     <path d="M 138.772094 94.298433 
L 214.272094 94.298433 
Q 216.272094 94.298433 216.272094 92.298433 
L 216.272094 46.620308 
Q 216.272094 44.620308 214.272094 44.620308 
L 138.772094 44.620308 
Q 136.772094 44.620308 136.772094 46.620308 
L 136.772094 92.298433 
Q 136.772094 94.298433 138.772094 94.298433 
z
" style="fill:#ffffff;opacity:0.8;stroke:#cccccc;stroke-linejoin:miter;"/>
    </g>
    <g id="line2d_11">
     <path d="M 140.772094 54.020308 
L 160.772094 54.020308 
" style="fill:none;stroke:#1f77b4;stroke-linecap:square;stroke-width:1.5;"/>
    </g>
    <g id="line2d_12"/>
    <g id="text_10">
     <!-- $\dot{m}$ port A -->
     <g transform="translate(168.772094 57.520308)scale(0.1 -0.1)">
      <defs>
       <path d="M 18.109375 8.203125 
L 18.109375 -20.796875 
L 9.078125 -20.796875 
L 9.078125 54.6875 
L 18.109375 54.6875 
L 18.109375 46.390625 
Q 20.953125 51.265625 25.265625 53.625 
Q 29.59375 56 35.59375 56 
Q 45.5625 56 51.78125 48.09375 
Q 58.015625 40.1875 58.015625 27.296875 
Q 58.015625 14.40625 51.78125 6.484375 
Q 45.5625 -1.421875 35.59375 -1.421875 
Q 29.59375 -1.421875 25.265625 0.953125 
Q 20.953125 3.328125 18.109375 8.203125 
z
M 48.6875 27.296875 
Q 48.6875 37.203125 44.609375 42.84375 
Q 40.53125 48.484375 33.40625 48.484375 
Q 26.265625 48.484375 22.1875 42.84375 
Q 18.109375 37.203125 18.109375 27.296875 
Q 18.109375 17.390625 22.1875 11.75 
Q 26.265625 6.109375 33.40625 6.109375 
Q 40.53125 6.109375 44.609375 11.75 
Q 48.6875 17.390625 48.6875 27.296875 
z
" id="DejaVuSans-112"/>
       <path d="M 41.109375 46.296875 
Q 39.59375 47.171875 37.8125 47.578125 
Q 36.03125 48 33.890625 48 
Q 26.265625 48 22.1875 43.046875 
Q 18.109375 38.09375 18.109375 28.8125 
L 18.109375 0 
L 9.078125 0 
L 9.078125 54.6875 
L 18.109375 54.6875 
L 18.109375 46.1875 
Q 20.953125 51.171875 25.484375 53.578125 
Q 30.03125 56 36.53125 56 
Q 37.453125 56 38.578125 55.875 
Q 39.703125 55.765625 41.0625 55.515625 
z
" id="DejaVuSans-114"/>
       <path d="M 34.1875 63.1875 
L 20.796875 26.90625 
L 47.609375 26.90625 
z
M 28.609375 72.90625 
L 39.796875 72.90625 
L 67.578125 0 
L 57.328125 0 
L 50.6875 18.703125 
L 17.828125 18.703125 
L 11.1875 0 
L 0.78125 0 
z
" id="DejaVuSans-65"/>
      </defs>
      <use transform="translate(85.946777 13.015625)" xlink:href="#DejaVuSans-775"/>
      <use transform="translate(0 0.515625)" xlink:href="#DejaVuSans-Oblique-109"/>
      <use transform="translate(97.412109 0.515625)" xlink:href="#DejaVuSans-32"/>
      <use transform="translate(129.199219 0.515625)" xlink:href="#DejaVuSans-112"/>
      <use transform="translate(192.675781 0.515625)" xlink:href="#DejaVuSans-111"/>
      <use transform="translate(253.857422 0.515625)" xlink:href="#DejaVuSans-114"/>
      <use transform="translate(294.970703 0.515625)" xlink:href="#DejaVuSans-116"/>
      <use transform="translate(334.179688 0.515625)" xlink:href="#DejaVuSans-32"/>
      <use transform="translate(365.966797 0.515625)" xlink:href="#DejaVuSans-65"/>
     </g>
    </g>
    <g id="line2d_13">
     <path d="M 140.772094 70.020308 
L 160.772094 70.020308 
" style="fill:none;stroke:#ff7f0e;stroke-linecap:square;stroke-width:1.5;"/>
    </g>
    <g id="line2d_14"/>
    <g id="text_11">
     <!-- $\dot{m}$ port B -->
     <g transform="translate(168.772094 73.520308)scale(0.1 -0.1)">
      <defs>
       <path d="M 19.671875 34.8125 
L 19.671875 8.109375 
L 35.5 8.109375 
Q 43.453125 8.109375 47.28125 11.40625 
Q 51.125 14.703125 51.125 21.484375 
Q 51.125 28.328125 47.28125 31.5625 
Q 43.453125 34.8125 35.5 34.8125 
z
M 19.671875 64.796875 
L 19.671875 42.828125 
L 34.28125 42.828125 
Q 41.5 42.828125 45.03125 45.53125 
Q 48.578125 48.25 48.578125 53.8125 
Q 48.578125 59.328125 45.03125 62.0625 
Q 41.5 64.796875 34.28125 64.796875 
z
M 9.8125 72.90625 
L 35.015625 72.90625 
Q 46.296875 72.90625 52.390625 68.21875 
Q 58.5 63.53125 58.5 54.890625 
Q 58.5 48.1875 55.375 44.234375 
Q 52.25 40.28125 46.1875 39.3125 
Q 53.46875 37.75 57.5 32.78125 
Q 61.53125 27.828125 61.53125 20.40625 
Q 61.53125 10.640625 54.890625 5.3125 
Q 48.25 0 35.984375 0 
L 9.8125 0 
z
" id="DejaVuSans-66"/>
      </defs>
      <use transform="translate(85.946777 13.015625)" xlink:href="#DejaVuSans-775"/>
      <use transform="translate(0 0.515625)" xlink:href="#DejaVuSans-Oblique-109"/>
      <use transform="translate(97.412109 0.515625)" xlink:href="#DejaVuSans-32"/>
      <use transform="translate(129.199219 0.515625)" xlink:href="#DejaVuSans-112"/>
      <use transform="translate(192.675781 0.515625)" xlink:href="#DejaVuSans-111"/>
      <use transform="translate(253.857422 0.515625)" xlink:href="#DejaVuSans-114"/>
      <use transform="translate(294.970703 0.515625)" xlink:href="#DejaVuSans-116"/>
      <use transform="translate(334.179688 0.515625)" xlink:href="#DejaVuSans-32"/>
      <use transform="translate(365.966797 0.515625)" xlink:href="#DejaVuSans-66"/>
     </g>
    </g>
    <g id="line2d_15">
     <path d="M 140.772094 84.718745 
L 160.772094 84.718745 
" style="fill:none;stroke:#2ca02c;stroke-linecap:square;stroke-width:1.5;"/>
    </g>
    <g id="line2d_16"/>
    <g id="text_12">
     <!-- $\dot{m}$ total -->
     <g transform="translate(168.772094 88.218745)scale(0.1 -0.1)">
      <use transform="translate(85.946777 13.015625)" xlink:href="#DejaVuSans-775"/>
      <use transform="translate(0 0.515625)" xlink:href="#DejaVuSans-Oblique-109"/>
      <use transform="translate(97.412109 0.515625)" xlink:href="#DejaVuSans-32"/>
      <use transform="translate(129.199219 0.515625)" xlink:href="#DejaVuSans-116"/>
      <use transform="translate(168.408203 0.515625)" xlink:href="#DejaVuSans-111"/>
      <use transform="translate(229.589844 0.515625)" xlink:href="#DejaVuSans-116"/>
      <use transform="translate(268.798828 0.515625)" xlink:href="#DejaVuSans-97"/>
      <use transform="translate(330.078125 0.515625)" xlink:href="#DejaVuSans-108"/>
     </g>
    </g>
   </g>
  </g>
  <g id="axes_2">
   <g id="patch_8">
    <path d="M 266.194779 137.91874 
L 445.360622 137.91874 
L 445.360622 1 
L 266.194779 1 
z
" style="fill:#ffffff;"/>
   </g>
   <g id="matplotlib.axis_3">
    <g id="xtick_5">
     <g id="line2d_17">
      <g>
       <use style="stroke:#000000;stroke-width:0.8;" x="274.338681" xlink:href="#mca24325b35" y="137.91874"/>
      </g>
     </g>
     <g id="text_13">
      <!-- 00:00 -->
      <g transform="translate(259.929306 152.517178)scale(0.1 -0.1)">
       <use xlink:href="#DejaVuSans-48"/>
       <use x="63.623047" xlink:href="#DejaVuSans-48"/>
       <use x="127.246094" xlink:href="#DejaVuSans-58"/>
       <use x="160.9375" xlink:href="#DejaVuSans-48"/>
       <use x="224.560547" xlink:href="#DejaVuSans-48"/>
      </g>
     </g>
    </g>
    <g id="xtick_6">
     <g id="line2d_18">
      <g>
       <use style="stroke:#000000;stroke-width:0.8;" x="328.631361" xlink:href="#mca24325b35" y="137.91874"/>
      </g>
     </g>
     <g id="text_14">
      <!-- 05:00 -->
      <g transform="translate(314.221986 152.517178)scale(0.1 -0.1)">
       <use xlink:href="#DejaVuSans-48"/>
       <use x="63.623047" xlink:href="#DejaVuSans-53"/>
       <use x="127.246094" xlink:href="#DejaVuSans-58"/>
       <use x="160.9375" xlink:href="#DejaVuSans-48"/>
       <use x="224.560547" xlink:href="#DejaVuSans-48"/>
      </g>
     </g>
    </g>
    <g id="xtick_7">
     <g id="line2d_19">
      <g>
       <use style="stroke:#000000;stroke-width:0.8;" x="382.92404" xlink:href="#mca24325b35" y="137.91874"/>
      </g>
     </g>
     <g id="text_15">
      <!-- 10:00 -->
      <g transform="translate(368.514665 152.517178)scale(0.1 -0.1)">
       <use xlink:href="#DejaVuSans-49"/>
       <use x="63.623047" xlink:href="#DejaVuSans-48"/>
       <use x="127.246094" xlink:href="#DejaVuSans-58"/>
       <use x="160.9375" xlink:href="#DejaVuSans-48"/>
       <use x="224.560547" xlink:href="#DejaVuSans-48"/>
      </g>
     </g>
    </g>
    <g id="xtick_8">
     <g id="line2d_20">
      <g>
       <use style="stroke:#000000;stroke-width:0.8;" x="437.21672" xlink:href="#mca24325b35" y="137.91874"/>
      </g>
     </g>
     <g id="text_16">
      <!-- 15:00 -->
      <g transform="translate(422.807345 152.517178)scale(0.1 -0.1)">
       <use xlink:href="#DejaVuSans-49"/>
       <use x="63.623047" xlink:href="#DejaVuSans-53"/>
       <use x="127.246094" xlink:href="#DejaVuSans-58"/>
       <use x="160.9375" xlink:href="#DejaVuSans-48"/>
       <use x="224.560547" xlink:href="#DejaVuSans-48"/>
      </g>
     </g>
    </g>
    <g id="text_17">
     <!-- simulation time in min:s -->
     <g transform="translate(295.376138 166.195303)scale(0.1 -0.1)">
      <use xlink:href="#DejaVuSans-115"/>
      <use x="52.099609" xlink:href="#DejaVuSans-105"/>
      <use x="79.882812" xlink:href="#DejaVuSans-109"/>
      <use x="177.294922" xlink:href="#DejaVuSans-117"/>
      <use x="240.673828" xlink:href="#DejaVuSans-108"/>
      <use x="268.457031" xlink:href="#DejaVuSans-97"/>
      <use x="329.736328" xlink:href="#DejaVuSans-116"/>
      <use x="368.945312" xlink:href="#DejaVuSans-105"/>
      <use x="396.728516" xlink:href="#DejaVuSans-111"/>
      <use x="457.910156" xlink:href="#DejaVuSans-110"/>
      <use x="521.289062" xlink:href="#DejaVuSans-32"/>
      <use x="553.076172" xlink:href="#DejaVuSans-116"/>
      <use x="592.285156" xlink:href="#DejaVuSans-105"/>
      <use x="620.068359" xlink:href="#DejaVuSans-109"/>
      <use x="717.480469" xlink:href="#DejaVuSans-101"/>
      <use x="779.003906" xlink:href="#DejaVuSans-32"/>
      <use x="810.791016" xlink:href="#DejaVuSans-105"/>
      <use x="838.574219" xlink:href="#DejaVuSans-110"/>
      <use x="901.953125" xlink:href="#DejaVuSans-32"/>
      <use x="933.740234" xlink:href="#DejaVuSans-109"/>
      <use x="1031.152344" xlink:href="#DejaVuSans-105"/>
      <use x="1058.935547" xlink:href="#DejaVuSans-110"/>
      <use x="1122.314453" xlink:href="#DejaVuSans-58"/>
      <use x="1156.005859" xlink:href="#DejaVuSans-115"/>
     </g>
    </g>
   </g>
   <g id="matplotlib.axis_4">
    <g id="ytick_4">
     <g id="line2d_21">
      <g>
       <use style="stroke:#000000;stroke-width:0.8;" x="266.194779" xlink:href="#m56ce53e461" y="131.695161"/>
      </g>
     </g>
     <g id="text_18">
      <!-- 20 -->
      <g transform="translate(246.469779 135.49438)scale(0.1 -0.1)">
       <use xlink:href="#DejaVuSans-50"/>
       <use x="63.623047" xlink:href="#DejaVuSans-48"/>
      </g>
     </g>
    </g>
    <g id="ytick_5">
     <g id="line2d_22">
      <g>
       <use style="stroke:#000000;stroke-width:0.8;" x="266.194779" xlink:href="#m56ce53e461" y="93.396213"/>
      </g>
     </g>
     <g id="text_19">
      <!-- 40 -->
      <g transform="translate(246.469779 97.195432)scale(0.1 -0.1)">
       <use xlink:href="#DejaVuSans-52"/>
       <use x="63.623047" xlink:href="#DejaVuSans-48"/>
      </g>
     </g>
    </g>
    <g id="ytick_6">
     <g id="line2d_23">
      <g>
       <use style="stroke:#000000;stroke-width:0.8;" x="266.194779" xlink:href="#m56ce53e461" y="55.097264"/>
      </g>
     </g>
     <g id="text_20">
      <!-- 60 -->
      <g transform="translate(246.469779 58.896483)scale(0.1 -0.1)">
       <use xlink:href="#DejaVuSans-54"/>
       <use x="63.623047" xlink:href="#DejaVuSans-48"/>
      </g>
     </g>
    </g>
    <g id="ytick_7">
     <g id="line2d_24">
      <g>
       <use style="stroke:#000000;stroke-width:0.8;" x="266.194779" xlink:href="#m56ce53e461" y="16.798316"/>
      </g>
     </g>
     <g id="text_21">
      <!-- 80 -->
      <g transform="translate(246.469779 20.597535)scale(0.1 -0.1)">
       <defs>
        <path d="M 31.78125 34.625 
Q 24.75 34.625 20.71875 30.859375 
Q 16.703125 27.09375 16.703125 20.515625 
Q 16.703125 13.921875 20.71875 10.15625 
Q 24.75 6.390625 31.78125 6.390625 
Q 38.8125 6.390625 42.859375 10.171875 
Q 46.921875 13.96875 46.921875 20.515625 
Q 46.921875 27.09375 42.890625 30.859375 
Q 38.875 34.625 31.78125 34.625 
z
M 21.921875 38.8125 
Q 15.578125 40.375 12.03125 44.71875 
Q 8.5 49.078125 8.5 55.328125 
Q 8.5 64.0625 14.71875 69.140625 
Q 20.953125 74.21875 31.78125 74.21875 
Q 42.671875 74.21875 48.875 69.140625 
Q 55.078125 64.0625 55.078125 55.328125 
Q 55.078125 49.078125 51.53125 44.71875 
Q 48 40.375 41.703125 38.8125 
Q 48.828125 37.15625 52.796875 32.3125 
Q 56.78125 27.484375 56.78125 20.515625 
Q 56.78125 9.90625 50.3125 4.234375 
Q 43.84375 -1.421875 31.78125 -1.421875 
Q 19.734375 -1.421875 13.25 4.234375 
Q 6.78125 9.90625 6.78125 20.515625 
Q 6.78125 27.484375 10.78125 32.3125 
Q 14.796875 37.15625 21.921875 38.8125 
z
M 18.3125 54.390625 
Q 18.3125 48.734375 21.84375 45.5625 
Q 25.390625 42.390625 31.78125 42.390625 
Q 38.140625 42.390625 41.71875 45.5625 
Q 45.3125 48.734375 45.3125 54.390625 
Q 45.3125 60.0625 41.71875 63.234375 
Q 38.140625 66.40625 31.78125 66.40625 
Q 25.390625 66.40625 21.84375 63.234375 
Q 18.3125 60.0625 18.3125 54.390625 
z
" id="DejaVuSans-56"/>
       </defs>
       <use xlink:href="#DejaVuSans-56"/>
       <use x="63.623047" xlink:href="#DejaVuSans-48"/>
      </g>
     </g>
    </g>
    <g id="text_22">
     <!-- temperataure $\theta$ in C -->
     <g transform="translate(240.369779 122.45937)rotate(-90)scale(0.1 -0.1)">
      <defs>
       <path d="M 45.515625 34.671875 
L 14.453125 34.671875 
Q 12.359375 20.0625 14.5 13.875 
Q 17.1875 6.25 24.46875 6.25 
Q 31.78125 6.25 37.359375 13.921875 
Q 42.234375 20.65625 45.515625 34.671875 
z
M 47.015625 42.96875 
Q 48.34375 56.84375 46.625 61.71875 
Q 43.953125 69.4375 36.765625 69.4375 
Q 29.296875 69.4375 23.828125 61.8125 
Q 19.53125 55.671875 16.15625 42.96875 
z
M 38.1875 76.765625 
Q 49.90625 76.765625 54.59375 66.40625 
Q 59.28125 56.109375 55.71875 37.84375 
Q 52.203125 19.625 43.453125 9.28125 
Q 34.765625 -1.125 23.046875 -1.125 
Q 11.28125 -1.125 6.640625 9.28125 
Q 2 19.625 5.515625 37.84375 
Q 9.078125 56.109375 17.71875 66.40625 
Q 26.421875 76.765625 38.1875 76.765625 
z
" id="DejaVuSans-Oblique-952"/>
       <path d="M 25 67.921875 
Q 21.09375 67.921875 18.40625 65.203125 
Q 15.71875 62.5 15.71875 58.59375 
Q 15.71875 54.734375 18.40625 52.078125 
Q 21.09375 49.421875 25 49.421875 
Q 28.90625 49.421875 31.59375 52.078125 
Q 34.28125 54.734375 34.28125 58.59375 
Q 34.28125 62.453125 31.5625 65.1875 
Q 28.859375 67.921875 25 67.921875 
z
M 25 74.21875 
Q 28.125 74.21875 31 73.015625 
Q 33.890625 71.828125 35.984375 69.578125 
Q 38.234375 67.390625 39.359375 64.59375 
Q 40.484375 61.8125 40.484375 58.59375 
Q 40.484375 52.15625 35.96875 47.6875 
Q 31.453125 43.21875 24.90625 43.21875 
Q 18.3125 43.21875 13.90625 47.609375 
Q 9.515625 52 9.515625 58.59375 
Q 9.515625 65.140625 14 69.671875 
Q 18.5 74.21875 25 74.21875 
z
" id="DejaVuSans-176"/>
       <path d="M 64.40625 67.28125 
L 64.40625 56.890625 
Q 59.421875 61.53125 53.78125 63.8125 
Q 48.140625 66.109375 41.796875 66.109375 
Q 29.296875 66.109375 22.65625 58.46875 
Q 16.015625 50.828125 16.015625 36.375 
Q 16.015625 21.96875 22.65625 14.328125 
Q 29.296875 6.6875 41.796875 6.6875 
Q 48.140625 6.6875 53.78125 8.984375 
Q 59.421875 11.28125 64.40625 15.921875 
L 64.40625 5.609375 
Q 59.234375 2.09375 53.4375 0.328125 
Q 47.65625 -1.421875 41.21875 -1.421875 
Q 24.65625 -1.421875 15.125 8.703125 
Q 5.609375 18.84375 5.609375 36.375 
Q 5.609375 53.953125 15.125 64.078125 
Q 24.65625 74.21875 41.21875 74.21875 
Q 47.75 74.21875 53.53125 72.484375 
Q 59.328125 70.75 64.40625 67.28125 
z
" id="DejaVuSans-67"/>
      </defs>
      <use transform="translate(0 0.234375)" xlink:href="#DejaVuSans-116"/>
      <use transform="translate(39.208984 0.234375)" xlink:href="#DejaVuSans-101"/>
      <use transform="translate(100.732422 0.234375)" xlink:href="#DejaVuSans-109"/>
      <use transform="translate(198.144531 0.234375)" xlink:href="#DejaVuSans-112"/>
      <use transform="translate(261.621094 0.234375)" xlink:href="#DejaVuSans-101"/>
      <use transform="translate(323.144531 0.234375)" xlink:href="#DejaVuSans-114"/>
      <use transform="translate(364.257812 0.234375)" xlink:href="#DejaVuSans-97"/>
      <use transform="translate(425.537109 0.234375)" xlink:href="#DejaVuSans-116"/>
      <use transform="translate(464.746094 0.234375)" xlink:href="#DejaVuSans-97"/>
      <use transform="translate(526.025391 0.234375)" xlink:href="#DejaVuSans-117"/>
      <use transform="translate(589.404297 0.234375)" xlink:href="#DejaVuSans-114"/>
      <use transform="translate(630.517578 0.234375)" xlink:href="#DejaVuSans-101"/>
      <use transform="translate(692.041016 0.234375)" xlink:href="#DejaVuSans-32"/>
      <use transform="translate(723.828125 0.234375)" xlink:href="#DejaVuSans-Oblique-952"/>
      <use transform="translate(785.009766 0.234375)" xlink:href="#DejaVuSans-32"/>
      <use transform="translate(816.796875 0.234375)" xlink:href="#DejaVuSans-105"/>
      <use transform="translate(844.580078 0.234375)" xlink:href="#DejaVuSans-110"/>
      <use transform="translate(907.958984 0.234375)" xlink:href="#DejaVuSans-32"/>
      <use transform="translate(939.746094 0.234375)" xlink:href="#DejaVuSans-176"/>
      <use transform="translate(989.746094 0.234375)" xlink:href="#DejaVuSans-67"/>
     </g>
    </g>
   </g>
   <g id="LineCollection_1">
    <path clip-path="url(#p8547dcc4c3)" d="M 274.338681 131.695161 
L 437.21672 131.695161 
" style="fill:none;stroke:#1f77b4;stroke-width:1.5;"/>
   </g>
   <g id="line2d_25">
    <path clip-path="url(#p8547dcc4c3)" d="M 274.338681 74.246739 
L 328.450385 74.246739 
L 328.631361 7.223579 
L 437.21672 7.223579 
L 437.21672 7.223579 
" style="fill:none;stroke:#1f77b4;stroke-linecap:square;stroke-width:1.5;"/>
   </g>
   <g id="line2d_26">
    <path clip-path="url(#p8547dcc4c3)" d="M 274.338681 131.695161 
L 274.881607 131.669334 
L 275.062583 131.095796 
L 275.243559 127.528342 
L 275.967461 94.613353 
L 276.148437 94.222609 
L 276.329412 94.894639 
L 276.510388 94.715788 
L 276.872339 92.955651 
L 277.053315 93.039519 
L 277.415266 93.747031 
L 277.958193 93.218218 
L 278.320144 93.502475 
L 279.767949 93.376218 
L 284.835265 93.396149 
L 328.631361 93.389147 
L 328.812336 92.385255 
L 328.993312 82.974348 
L 329.174287 66.041926 
L 329.355263 62.805164 
L 330.079165 96.49969 
L 330.441117 84.211557 
L 330.622092 89.710084 
L 330.803068 99.325025 
L 330.984043 100.135267 
L 331.345995 84.948765 
L 331.52697 89.639433 
L 331.707946 98.890581 
L 331.888921 100.122228 
L 332.250872 85.291639 
L 332.431848 90.269658 
L 332.612824 99.567028 
L 332.793799 100.627927 
L 333.155751 85.149323 
L 333.336726 89.884517 
L 333.517702 99.174429 
L 333.698677 100.423298 
L 334.060629 85.144623 
L 334.241604 89.481366 
L 334.42258 99.156114 
L 334.603555 100.600156 
L 334.965507 85.142075 
L 335.146482 89.38067 
L 335.327458 98.94238 
L 335.508433 100.835578 
L 335.870385 85.392967 
L 336.05136 89.60997 
L 336.232336 99.204869 
L 336.413311 100.698788 
L 336.775262 85.150306 
L 336.956238 89.049083 
L 337.137214 98.629273 
L 337.318189 100.747179 
L 337.680141 85.429361 
L 337.861116 89.520033 
L 338.042092 98.865955 
L 338.223067 100.744343 
L 338.585019 85.201623 
L 338.765994 88.83838 
L 338.94697 98.660498 
L 339.127945 100.786655 
L 339.489896 85.477109 
L 339.670872 89.301708 
L 339.851848 98.633096 
L 340.032823 100.753797 
L 340.394775 85.219911 
L 340.57575 89.25034 
L 340.756726 98.820527 
L 340.937701 100.867354 
L 341.299653 85.509164 
L 341.480628 89.128805 
L 341.661604 98.449039 
L 341.842579 100.761444 
L 342.20453 85.078544 
L 342.385506 89.088839 
L 342.566482 98.683943 
L 342.747457 100.930609 
L 343.109408 85.534757 
L 343.290384 88.973644 
L 343.47136 98.496443 
L 343.652335 100.506661 
L 344.014287 85.097588 
L 344.195262 88.955865 
L 344.376238 98.562704 
L 344.557213 100.980698 
L 344.919165 85.405591 
L 345.10014 89.414253 
L 345.281116 98.666905 
L 345.462091 100.533129 
L 345.824042 85.118226 
L 346.005018 88.84634 
L 346.185994 98.677677 
L 346.366969 100.764974 
L 346.728921 85.429146 
L 346.909896 89.300386 
L 347.090872 98.551736 
L 347.271847 100.557739 
L 347.633799 85.005304 
L 347.814774 89.330754 
L 347.99575 98.892301 
L 348.176725 100.816996 
L 348.538677 85.450931 
L 348.719652 89.192901 
L 348.900628 98.643219 
L 349.081603 100.470885 
L 349.443554 84.97972 
L 349.62453 89.216488 
L 349.805506 98.789042 
L 349.986481 100.819396 
L 350.348433 85.493553 
L 350.529408 89.147524 
L 350.710384 98.677089 
L 350.891359 100.465676 
L 351.253311 85.046185 
L 351.434286 89.020986 
L 351.615262 98.616866 
L 351.796237 100.905384 
L 352.158188 85.412199 
L 352.339164 89.297897 
L 352.52014 98.899317 
L 352.701115 100.748345 
L 353.063066 85.182238 
L 353.244042 88.769098 
L 353.425018 98.363982 
L 353.605993 100.843361 
L 353.967945 85.518267 
L 354.14892 89.297881 
L 354.329896 98.710893 
L 354.510871 100.995917 
L 354.872823 85.316765 
L 355.053798 88.776432 
L 355.234774 98.599813 
L 355.415749 100.939107 
L 355.7777 85.627528 
L 355.958676 88.984054 
L 356.139652 98.444668 
L 356.320627 101.234651 
L 356.682579 85.296422 
L 356.863554 88.680737 
L 357.04453 98.260984 
L 357.225505 101.099369 
L 357.587457 85.781917 
L 357.768432 88.655868 
L 357.949408 98.367758 
L 358.130383 101.238481 
L 358.492334 85.471596 
L 358.67331 88.329498 
L 358.854286 97.881823 
L 359.035261 101.249111 
L 359.397212 85.96319 
L 359.578188 88.614096 
L 359.759164 98.332267 
L 359.940139 101.448635 
L 360.302091 85.667417 
L 360.483066 87.969044 
L 360.845017 101.23107 
L 361.206968 85.903051 
L 361.387944 88.467682 
L 361.749895 101.591871 
L 362.111847 85.798128 
L 362.292822 88.113962 
L 362.654773 101.347357 
L 363.016725 86.093247 
L 363.1977 88.092447 
L 363.559651 101.686822 
L 363.921602 85.791376 
L 364.102578 87.76764 
L 364.464529 101.450417 
L 364.826481 86.304842 
L 365.007456 88.036091 
L 365.369407 101.64395 
L 365.731358 85.939757 
L 365.912334 87.299891 
L 366.274285 101.376564 
L 366.636236 86.239857 
L 366.817212 87.790975 
L 367.179163 101.735644 
L 367.541115 86.252411 
L 367.72209 86.948016 
L 368.084041 101.324472 
L 368.445992 86.480267 
L 368.626968 87.373595 
L 368.988919 101.771901 
L 369.35087 86.452181 
L 369.531846 87.042189 
L 369.893797 101.429257 
L 370.255749 86.7396 
L 370.436724 86.981865 
L 370.798675 101.731208 
L 371.160626 86.50457 
L 371.341602 86.71493 
L 371.703553 101.444518 
L 371.884529 95.791157 
L 372.065504 86.638931 
L 372.24648 87.071485 
L 372.608431 101.73119 
L 372.789407 96.09703 
L 372.970383 86.818804 
L 373.151358 86.699606 
L 373.513309 101.475291 
L 373.694285 95.961322 
L 373.87526 86.931846 
L 374.056236 86.801728 
L 374.418187 101.649823 
L 374.961114 86.596606 
L 375.323065 101.511302 
L 375.504041 96.063921 
L 375.685017 86.811492 
L 375.865992 86.960284 
L 376.227943 101.729825 
L 376.408919 96.336402 
L 376.589894 86.980497 
L 376.77087 86.600786 
L 377.132821 101.567177 
L 377.313797 96.226957 
L 377.494772 87.107368 
L 377.675748 86.722146 
L 378.037699 101.719689 
L 378.218675 96.105607 
L 378.39965 86.831176 
L 378.580626 86.511064 
L 378.942577 101.525439 
L 379.123553 96.021068 
L 379.304528 86.90004 
L 379.485504 86.741216 
L 379.847455 101.696213 
L 380.028431 96.638548 
L 380.209406 87.053895 
L 380.390382 86.587097 
L 380.752333 101.602913 
L 380.933309 96.558772 
L 381.114284 86.99555 
L 381.29526 86.549797 
L 381.657211 101.617795 
L 381.838187 96.646223 
L 382.019162 87.233255 
L 382.200138 86.186948 
L 382.562089 101.591174 
L 382.743065 96.608808 
L 382.92404 87.184513 
L 383.105016 86.098396 
L 383.466967 101.482826 
L 383.647943 96.719267 
L 383.828918 87.296551 
L 384.009894 86.137003 
L 384.371845 101.494679 
L 384.552821 96.973492 
L 384.733796 87.258198 
L 384.914772 86.043363 
L 385.276723 101.487822 
L 385.457699 97.390514 
L 385.638674 87.653446 
L 385.81965 86.083564 
L 386.181601 101.476192 
L 386.362577 97.387866 
L 386.543552 87.627886 
L 386.724528 85.773559 
L 387.086479 101.518515 
L 387.267455 97.630247 
L 387.44843 88.183194 
L 387.629406 85.946251 
L 387.991357 100.929977 
L 388.172333 97.11575 
L 388.353308 87.421349 
L 388.534284 85.610248 
L 388.896235 101.297861 
L 389.077211 97.85002 
L 389.258186 88.49234 
L 389.439162 85.86667 
L 389.801113 101.05192 
L 389.982089 97.039491 
L 390.163064 87.587405 
L 390.34404 85.516076 
L 390.705991 101.169879 
L 390.886967 97.658722 
L 391.067942 88.095161 
L 391.248918 86.033735 
L 391.610869 101.533083 
L 391.791845 97.962246 
L 391.972821 88.31929 
L 392.153796 85.477547 
L 392.515747 100.970991 
L 392.696723 97.861077 
L 392.877698 88.522034 
L 393.058674 85.821687 
L 393.420625 101.342785 
L 393.601601 98.468219 
L 393.782576 88.568673 
L 393.963552 85.570912 
L 394.325503 100.965514 
L 394.506479 98.19504 
L 394.687454 88.865399 
L 394.86843 85.742642 
L 395.230381 101.433491 
L 395.411357 98.252833 
L 395.592332 88.588011 
L 395.773308 85.491779 
L 396.135259 100.871116 
L 396.316235 98.155037 
L 396.49721 88.366407 
L 396.678186 85.357573 
L 397.040137 101.074914 
L 397.221113 98.754822 
L 397.583064 85.506841 
L 397.945015 100.863595 
L 398.125991 98.464878 
L 398.487942 85.130219 
L 398.849893 101.019274 
L 399.030869 98.66944 
L 399.39282 85.383282 
L 399.754771 100.656005 
L 399.935747 98.267531 
L 400.116722 88.771883 
L 400.297698 85.175201 
L 400.659649 100.801574 
L 400.840625 98.977544 
L 401.202576 85.396018 
L 401.564527 100.721876 
L 401.745503 98.591943 
L 402.107454 85.065371 
L 402.469405 100.590972 
L 402.650381 98.783574 
L 403.012332 85.275078 
L 403.374283 100.730819 
L 403.555259 99.343645 
L 403.91721 85.198571 
L 404.279161 100.541945 
L 404.460137 99.234781 
L 404.822088 85.369371 
L 405.184039 100.798455 
L 405.365015 99.31244 
L 405.726966 85.137191 
L 406.088917 100.652211 
L 406.269893 99.173372 
L 406.631844 85.425481 
L 406.993795 100.653031 
L 407.174771 99.38556 
L 407.536722 85.204921 
L 407.898673 100.467898 
L 408.079649 99.551472 
L 408.4416 85.080989 
L 408.803551 100.468033 
L 408.984527 99.632384 
L 409.346478 85.237378 
L 409.708429 100.401195 
L 409.889405 99.546716 
L 410.251356 85.004873 
L 410.613307 100.178395 
L 410.794283 99.588323 
L 411.156234 85.082675 
L 411.518185 100.063185 
L 411.699161 99.333117 
L 412.061112 84.976864 
L 412.423063 100.095547 
L 412.604039 99.902585 
L 412.96599 85.054972 
L 413.327941 100.105141 
L 413.508917 99.809844 
L 413.870868 85.062577 
L 414.232819 100.066842 
L 414.413795 99.868691 
L 414.775746 85.024859 
L 414.956722 90.509781 
L 415.137697 99.902384 
L 415.318673 99.952756 
L 415.680624 85.040768 
L 415.8616 90.452746 
L 416.042575 99.689336 
L 416.223551 100.051923 
L 416.585502 85.097788 
L 416.766478 90.58232 
L 416.947453 99.789477 
L 417.128429 100.341779 
L 417.49038 85.053863 
L 417.671356 90.498979 
L 417.852331 99.722673 
L 418.033307 100.312313 
L 418.395258 85.352874 
L 418.576234 90.827074 
L 418.757209 99.954425 
L 418.938185 100.332175 
L 419.300136 85.129131 
L 419.481112 90.339319 
L 419.662087 99.798723 
L 419.843063 100.274373 
L 420.205014 85.042227 
L 420.38599 89.936116 
L 420.566965 99.495441 
L 420.747941 100.291812 
L 421.109892 85.103014 
L 421.290868 89.936666 
L 421.471843 99.471374 
L 421.652819 100.295933 
L 422.01477 85.054158 
L 422.195746 89.905222 
L 422.376721 99.353153 
L 422.557697 100.672306 
L 422.919648 85.434571 
L 423.100624 90.254208 
L 423.281599 99.261542 
L 423.462575 100.041073 
L 423.824526 84.863703 
L 424.005502 89.362882 
L 424.186477 98.835406 
L 424.367453 100.397028 
L 424.729404 85.482271 
L 424.91038 90.151201 
L 425.091355 99.492675 
L 425.272331 100.890968 
L 425.634282 85.237008 
L 425.815258 89.448083 
L 425.996233 98.909779 
L 426.177209 100.395491 
L 426.53916 85.50879 
L 426.720136 89.935694 
L 426.901111 99.299107 
L 427.082087 101.052118 
L 427.444038 85.450534 
L 427.625014 89.556102 
L 427.805989 98.708399 
L 427.986965 100.440995 
L 428.348916 85.007727 
L 428.529892 88.91662 
L 428.710867 98.737746 
L 428.891843 100.742769 
L 429.253794 85.495869 
L 429.43477 89.323853 
L 429.615745 98.511824 
L 429.796721 100.493496 
L 430.158672 85.050381 
L 430.339648 89.107245 
L 430.520623 98.62837 
L 430.701599 100.758606 
L 431.06355 85.615184 
L 431.244526 89.240334 
L 431.425501 98.914582 
L 431.606477 101.013322 
L 431.968428 85.297421 
L 432.149404 88.864307 
L 432.330379 98.169442 
L 432.511355 100.817662 
L 432.873306 85.727329 
L 433.054282 89.661342 
L 433.235257 99.062065 
L 433.416233 101.17187 
L 433.778184 85.495109 
L 433.95916 88.729525 
L 434.140135 98.176966 
L 434.321111 100.572249 
L 434.683062 85.076393 
L 434.864038 88.664595 
L 435.045013 98.291116 
L 435.225989 101.119991 
L 435.58794 85.768082 
L 435.768916 88.823934 
L 435.949891 98.261553 
L 436.130867 100.611034 
L 436.492818 85.127677 
L 436.673794 88.30363 
L 436.854769 97.86295 
L 437.035745 100.93513 
L 437.21672 97.784367 
L 437.21672 97.784367 
" style="fill:none;stroke:#ff7f0e;stroke-linecap:square;stroke-width:1.5;"/>
   </g>
   <g id="patch_9">
    <path d="M 266.194779 137.91874 
L 266.194779 1 
" style="fill:none;stroke:#000000;stroke-linecap:square;stroke-linejoin:miter;stroke-width:0.8;"/>
   </g>
   <g id="patch_10">
    <path d="M 445.360622 137.91874 
L 445.360622 1 
" style="fill:none;stroke:#000000;stroke-linecap:square;stroke-linejoin:miter;stroke-width:0.8;"/>
   </g>
   <g id="patch_11">
    <path d="M 266.194779 137.91874 
L 445.360622 137.91874 
" style="fill:none;stroke:#000000;stroke-linecap:square;stroke-linejoin:miter;stroke-width:0.8;"/>
   </g>
   <g id="patch_12">
    <path d="M 266.194779 1 
L 445.360622 1 
" style="fill:none;stroke:#000000;stroke-linecap:square;stroke-linejoin:miter;stroke-width:0.8;"/>
   </g>
   <g id="legend_2">
    <g id="patch_13">
     <path d="M 366.460622 93.098433 
L 438.360622 93.098433 
Q 440.360622 93.098433 440.360622 91.098433 
L 440.360622 47.820308 
Q 440.360622 45.820308 438.360622 45.820308 
L 366.460622 45.820308 
Q 364.460622 45.820308 364.460622 47.820308 
L 364.460622 91.098433 
Q 364.460622 93.098433 366.460622 93.098433 
z
" style="fill:#ffffff;opacity:0.8;stroke:#cccccc;stroke-linejoin:miter;"/>
    </g>
    <g id="line2d_27">
     <path d="M 368.460622 54.020308 
L 388.460622 54.020308 
" style="fill:none;stroke:#1f77b4;stroke-linecap:square;stroke-width:1.5;"/>
    </g>
    <g id="line2d_28"/>
    <g id="text_23">
     <!-- $\theta$ port B -->
     <g transform="translate(396.460622 57.520308)scale(0.1 -0.1)">
      <use transform="translate(0 0.234375)" xlink:href="#DejaVuSans-Oblique-952"/>
      <use transform="translate(61.181641 0.234375)" xlink:href="#DejaVuSans-32"/>
      <use transform="translate(92.96875 0.234375)" xlink:href="#DejaVuSans-112"/>
      <use transform="translate(156.445312 0.234375)" xlink:href="#DejaVuSans-111"/>
      <use transform="translate(217.626953 0.234375)" xlink:href="#DejaVuSans-114"/>
      <use transform="translate(258.740234 0.234375)" xlink:href="#DejaVuSans-116"/>
      <use transform="translate(297.949219 0.234375)" xlink:href="#DejaVuSans-32"/>
      <use transform="translate(329.736328 0.234375)" xlink:href="#DejaVuSans-66"/>
     </g>
    </g>
    <g id="line2d_29">
     <path d="M 368.460622 68.718745 
L 388.460622 68.718745 
" style="fill:none;stroke:#ff7f0e;stroke-linecap:square;stroke-width:1.5;"/>
    </g>
    <g id="line2d_30"/>
    <g id="text_24">
     <!-- $\theta$ mix -->
     <g transform="translate(396.460622 72.218745)scale(0.1 -0.1)">
      <defs>
       <path d="M 54.890625 54.6875 
L 35.109375 28.078125 
L 55.90625 0 
L 45.3125 0 
L 29.390625 21.484375 
L 13.484375 0 
L 2.875 0 
L 24.125 28.609375 
L 4.6875 54.6875 
L 15.28125 54.6875 
L 29.78125 35.203125 
L 44.28125 54.6875 
z
" id="DejaVuSans-120"/>
      </defs>
      <use transform="translate(0 0.234375)" xlink:href="#DejaVuSans-Oblique-952"/>
      <use transform="translate(61.181641 0.234375)" xlink:href="#DejaVuSans-32"/>
      <use transform="translate(92.96875 0.234375)" xlink:href="#DejaVuSans-109"/>
      <use transform="translate(190.380859 0.234375)" xlink:href="#DejaVuSans-105"/>
      <use transform="translate(218.164062 0.234375)" xlink:href="#DejaVuSans-120"/>
     </g>
    </g>
    <g id="line2d_31">
     <path d="M 368.460622 83.498433 
L 388.460622 83.498433 
" style="fill:none;stroke:#1f77b4;stroke-width:1.5;"/>
    </g>
    <g id="text_25">
     <!-- $\theta$ port A -->
     <g transform="translate(396.460622 86.998433)scale(0.1 -0.1)">
      <use transform="translate(0 0.234375)" xlink:href="#DejaVuSans-Oblique-952"/>
      <use transform="translate(61.181641 0.234375)" xlink:href="#DejaVuSans-32"/>
      <use transform="translate(92.96875 0.234375)" xlink:href="#DejaVuSans-112"/>
      <use transform="translate(156.445312 0.234375)" xlink:href="#DejaVuSans-111"/>
      <use transform="translate(217.626953 0.234375)" xlink:href="#DejaVuSans-114"/>
      <use transform="translate(258.740234 0.234375)" xlink:href="#DejaVuSans-116"/>
      <use transform="translate(297.949219 0.234375)" xlink:href="#DejaVuSans-32"/>
      <use transform="translate(329.736328 0.234375)" xlink:href="#DejaVuSans-65"/>
     </g>
    </g>
   </g>
  </g>
 </g>
 <defs>
  <clipPath id="p1da12dc152">
   <rect height="136.91874" width="179.165844" x="42.10625" y="1"/>
  </clipPath>
  <clipPath id="p8547dcc4c3">
   <rect height="136.91874" width="179.165844" x="266.194779" y="1"/>
  </clipPath>
 </defs>
</svg>
